<svg xmlns="http://www.w3.org/2000/svg" width="25" height="25" viewBox="0 0 25 25" fill="none">
  <mask id="mask0_29_942" style="mask-type:alpha" maskUnits="userSpaceOnUse" x="0" y="0" width="25" height="25">
    <rect width="25" height="25" fill="#D9D9D9"/>
  </mask>
  <g mask="url(#mask0_29_942)">
    <path d="M6.25 22.9167C5.38194 22.9167 4.6441 22.6129 4.03646 22.0052C3.42882 21.3976 3.125 20.6598 3.125 19.7917V5.20837C3.125 4.34032 3.42882 3.60247 4.03646 2.99483C4.6441 2.38719 5.38194 2.08337 6.25 2.08337H17.7083V18.75H6.25C5.95486 18.75 5.70747 18.8499 5.50781 19.0495C5.30816 19.2492 5.20833 19.4966 5.20833 19.7917C5.20833 20.0868 5.30816 20.3342 5.50781 20.5339C5.70747 20.7335 5.95486 20.8334 6.25 20.8334H19.7917V4.16671H21.875V22.9167H6.25ZM9.375 16.6667H15.625V4.16671H9.375V16.6667ZM7.29167 16.6667V4.16671H6.25C5.95486 4.16671 5.70747 4.26653 5.50781 4.46619C5.30816 4.66584 5.20833 4.91323 5.20833 5.20837V16.849C5.38194 16.7969 5.55122 16.7535 5.71615 16.7188C5.88108 16.6841 6.05903 16.6667 6.25 16.6667H7.29167Z" fill="black"/>
  </g>
</svg>