<svg width="120" height="44" viewBox="0 0 120 44" fill="none" xmlns="http://www.w3.org/2000/svg">
<g id="Frame">
<path id="Vector" d="M48.2139 40H46.3917L46.4034 38.834H48.2139C48.7413 38.834 49.1827 38.7188 49.5382 38.4883C49.8975 38.2578 50.1671 37.9277 50.3468 37.498C50.5303 37.0684 50.6221 36.5566 50.6221 35.9629V35.5C50.6221 35.0391 50.5694 34.6309 50.4639 34.2754C50.3624 33.9199 50.21 33.6211 50.0069 33.3789C49.8077 33.1367 49.5616 32.9531 49.2686 32.8281C48.9796 32.7031 48.6456 32.6406 48.2667 32.6406H46.3564V31.4688H48.2667C48.8331 31.4688 49.3507 31.5645 49.8194 31.7559C50.2882 31.9434 50.6924 32.2148 51.0322 32.5703C51.3759 32.9258 51.6396 33.3516 51.8232 33.8477C52.0068 34.3438 52.0987 34.8984 52.0987 35.5117V35.9629C52.0987 36.5762 52.0068 37.1309 51.8232 37.627C51.6396 38.123 51.3759 38.5488 51.0322 38.9043C50.6884 39.2559 50.2784 39.5273 49.8018 39.7188C49.3292 39.9062 48.7999 40 48.2139 40ZM47.2061 31.4688V40H45.7354V31.4688H47.2061ZM55.4464 33.6602V40H54.0284V33.6602H55.4464ZM53.9346 31.9961C53.9346 31.7812 54.0049 31.6035 54.1455 31.4629C54.29 31.3184 54.4893 31.2461 54.7432 31.2461C54.9932 31.2461 55.1904 31.3184 55.3349 31.4629C55.4795 31.6035 55.5518 31.7812 55.5518 31.9961C55.5518 32.207 55.4795 32.3828 55.3349 32.5234C55.1904 32.6641 54.9932 32.7344 54.7432 32.7344C54.4893 32.7344 54.29 32.6641 54.1455 32.5234C54.0049 32.3828 53.9346 32.207 53.9346 31.9961ZM61.0675 38.7285V35.7051C61.0675 35.4785 61.0264 35.2832 60.9444 35.1191C60.8624 34.9551 60.7374 34.8281 60.5694 34.7383C60.4053 34.6484 60.1982 34.6035 59.9482 34.6035C59.7177 34.6035 59.5186 34.6426 59.3507 34.7207C59.1827 34.7988 59.0518 34.9043 58.958 35.0371C58.8643 35.1699 58.8175 35.3203 58.8175 35.4883H57.4112C57.4112 35.2383 57.4718 34.9961 57.5928 34.7617C57.7139 34.5273 57.8897 34.3184 58.1202 34.1348C58.3507 33.9512 58.6259 33.8066 58.9464 33.7012C59.2667 33.5957 59.626 33.543 60.0245 33.543C60.501 33.543 60.9229 33.623 61.2901 33.7832C61.6612 33.9434 61.9522 34.1855 62.1632 34.5098C62.378 34.8301 62.4854 35.2324 62.4854 35.7168V38.5352C62.4854 38.8242 62.5049 39.084 62.5439 39.3145C62.5869 39.541 62.6475 39.7383 62.7257 39.9062V40H61.2784C61.212 39.8477 61.1593 39.6543 61.1202 39.4199C61.085 39.1816 61.0675 38.9512 61.0675 38.7285ZM61.2724 36.1445L61.2843 37.0176H60.2705C60.0089 37.0176 59.7784 37.043 59.5792 37.0938C59.38 37.1406 59.2139 37.2109 59.0811 37.3047C58.9483 37.3984 58.8486 37.5117 58.7822 37.6445C58.7158 37.7773 58.6827 37.9277 58.6827 38.0957C58.6827 38.2637 58.7218 38.418 58.7999 38.5586C58.878 38.6953 58.9913 38.8027 59.1397 38.8809C59.2921 38.959 59.4757 38.998 59.6905 38.998C59.9796 38.998 60.2315 38.9395 60.4464 38.8223C60.6651 38.7012 60.837 38.5547 60.962 38.3828C61.087 38.207 61.1534 38.041 61.1612 37.8848L61.6182 38.5117C61.5714 38.6719 61.4913 38.8438 61.378 39.0273C61.2647 39.2109 61.1163 39.3867 60.9327 39.5547C60.753 39.7188 60.5361 39.8535 60.2822 39.959C60.0322 40.0645 59.7432 40.1172 59.4151 40.1172C59.001 40.1172 58.6319 40.0352 58.3077 39.8711C57.9835 39.7031 57.7296 39.4785 57.546 39.1973C57.3624 38.9121 57.2705 38.5898 57.2705 38.2305C57.2705 37.8945 57.333 37.5977 57.458 37.3398C57.5869 37.0781 57.7744 36.8594 58.0205 36.6836C58.2705 36.5078 58.5753 36.375 58.9346 36.2852C59.294 36.1914 59.7042 36.1445 60.1651 36.1445H61.2724ZM65.88 34.8672V40H64.4678V33.6602H65.8155L65.88 34.8672ZM67.8194 33.6191L67.8076 34.9316C67.7217 34.916 67.628 34.9043 67.5264 34.8965C67.4288 34.8887 67.3311 34.8848 67.2335 34.8848C66.9913 34.8848 66.7783 34.9199 66.5947 34.9902C66.4111 35.0566 66.2569 35.1543 66.1319 35.2832C66.0108 35.4082 65.9171 35.5605 65.8507 35.7402C65.7843 35.9199 65.7452 36.1211 65.7335 36.3438L65.4111 36.3672C65.4111 35.9688 65.4503 35.5996 65.5284 35.2598C65.6065 34.9199 65.7237 34.6211 65.88 34.3633C66.0401 34.1055 66.2393 33.9043 66.4776 33.7598C66.7198 33.6152 66.9991 33.543 67.3155 33.543C67.4014 33.543 67.4932 33.5508 67.5909 33.5664C67.6925 33.582 67.7686 33.5996 67.8194 33.6191ZM71.1495 39.3086L72.872 33.6602H74.3839L71.8409 40.9668C71.7823 41.123 71.7061 41.293 71.6124 41.4766C71.5186 41.6602 71.3955 41.834 71.2431 41.998C71.0947 42.166 70.9093 42.3008 70.6866 42.4023C70.4639 42.5078 70.1944 42.5605 69.878 42.5605C69.753 42.5605 69.6318 42.5488 69.5146 42.5254C69.4013 42.5059 69.294 42.4844 69.1925 42.4609L69.1866 41.3828C69.2257 41.3867 69.2724 41.3906 69.3271 41.3945C69.3857 41.3984 69.4326 41.4004 69.4678 41.4004C69.7022 41.4004 69.8974 41.3711 70.0537 41.3125C70.2099 41.2578 70.3369 41.168 70.4345 41.043C70.5361 40.918 70.6221 40.75 70.6925 40.5391L71.1495 39.3086ZM70.1768 33.6602L71.6826 38.4062L71.9345 39.8945L70.9561 40.1465L68.6534 33.6602H70.1768Z" fill="white"/>
<path id="Vector_2" d="M60.0833 6.16667C60.0833 4.79638 59.5741 3.48222 58.6677 2.51328C57.7613 1.54434 56.5319 1 55.25 1H48V20.375H56.4583C57.4197 20.375 58.3418 20.7833 59.0216 21.51C59.7014 22.2367 60.0833 23.2223 60.0833 24.25M60.0833 6.16667V24.25M60.0833 6.16667C60.0833 4.79638 60.5926 3.48222 61.499 2.51328C62.4054 1.54434 63.6348 1 64.9167 1H72.1667V20.375H63.7083C62.7469 20.375 61.8249 20.7833 61.1451 21.51C60.4653 22.2367 60.0833 23.2223 60.0833 24.25" stroke="white" stroke-width="2" stroke-linecap="round" stroke-linejoin="round"/>
</g>
</svg>
