<svg xmlns="http://www.w3.org/2000/svg" width="27" height="26" viewBox="0 0 27 26" fill="none">
  <path d="M13.0833 6.16667C13.0833 4.79638 12.5741 3.48222 11.6677 2.51328C10.7613 1.54434 9.53188 1 8.25 1H1V20.375H9.45833C10.4197 20.375 11.3418 20.7833 12.0216 21.51C12.7014 22.2367 13.0833 23.2223 13.0833 24.25M13.0833 6.16667V24.25M13.0833 6.16667C13.0833 4.79638 13.5926 3.48222 14.499 2.51328C15.4054 1.54434 16.6348 1 17.9167 1H25.1667V20.375H16.7083C15.7469 20.375 14.8249 20.7833 14.1451 21.51C13.4653 22.2367 13.0833 23.2223 13.0833 24.25" stroke="white" stroke-width="2" stroke-linecap="round" stroke-linejoin="round"/>
</svg>