<svg width="120" height="66" viewBox="0 0 120 66" fill="none" xmlns="http://www.w3.org/2000/svg">
<g id="Frame">
<g id="Group" filter="url(#filter0_d_89_142)">
<path id="Vector" d="M90 29C90 45.0163 75.8966 58 58.5 58C41.1034 58 27 45.0163 27 29C27 12.9837 41.1034 0 58.5 0C75.8966 0 90 12.9837 90 29Z" fill="white"/>
</g>
<path id="Vector_2" d="M58.5003 16.0417C58.5003 14.6714 57.9911 13.3572 57.0847 12.3883C56.1782 11.4193 54.9489 10.875 53.667 10.875H46.417V30.25H54.8753C55.8367 30.25 56.7588 30.6583 57.4386 31.385C58.1184 32.1117 58.5003 33.0973 58.5003 34.125M58.5003 16.0417V34.125M58.5003 16.0417C58.5003 14.6714 59.0096 13.3572 59.916 12.3883C60.8224 11.4193 62.0518 10.875 63.3337 10.875H70.5837V30.25H62.1253C61.1639 30.25 60.2419 30.6583 59.5621 31.385C58.8822 32.1117 58.5003 33.0973 58.5003 34.125" stroke="#3254ED" stroke-width="2" stroke-linecap="round" stroke-linejoin="round"/>
<path id="Vector_3" d="M48.2139 46H46.3917L46.4034 44.834H48.2139C48.7413 44.834 49.1827 44.7188 49.5382 44.4883C49.8975 44.2578 50.1671 43.9277 50.3468 43.498C50.5303 43.0684 50.6221 42.5566 50.6221 41.9629V41.5C50.6221 41.0391 50.5694 40.6309 50.4639 40.2754C50.3624 39.9199 50.21 39.6211 50.0069 39.3789C49.8077 39.1367 49.5616 38.9531 49.2686 38.8281C48.9796 38.7031 48.6456 38.6406 48.2667 38.6406H46.3564V37.4688H48.2667C48.8331 37.4688 49.3507 37.5645 49.8194 37.7559C50.2882 37.9434 50.6924 38.2148 51.0322 38.5703C51.3759 38.9258 51.6396 39.3516 51.8232 39.8477C52.0068 40.3438 52.0987 40.8984 52.0987 41.5117V41.9629C52.0987 42.5762 52.0068 43.1309 51.8232 43.627C51.6396 44.123 51.3759 44.5488 51.0322 44.9043C50.6884 45.2559 50.2784 45.5273 49.8018 45.7188C49.3292 45.9062 48.7999 46 48.2139 46ZM47.2061 37.4688V46H45.7354V37.4688H47.2061ZM55.4464 39.6602V46H54.0284V39.6602H55.4464ZM53.9346 37.9961C53.9346 37.7812 54.0049 37.6035 54.1455 37.4629C54.29 37.3184 54.4893 37.2461 54.7432 37.2461C54.9932 37.2461 55.1904 37.3184 55.3349 37.4629C55.4795 37.6035 55.5518 37.7812 55.5518 37.9961C55.5518 38.207 55.4795 38.3828 55.3349 38.5234C55.1904 38.6641 54.9932 38.7344 54.7432 38.7344C54.4893 38.7344 54.29 38.6641 54.1455 38.5234C54.0049 38.3828 53.9346 38.207 53.9346 37.9961ZM61.0675 44.7285V41.7051C61.0675 41.4785 61.0264 41.2832 60.9444 41.1191C60.8624 40.9551 60.7374 40.8281 60.5694 40.7383C60.4053 40.6484 60.1982 40.6035 59.9482 40.6035C59.7177 40.6035 59.5186 40.6426 59.3507 40.7207C59.1827 40.7988 59.0518 40.9043 58.958 41.0371C58.8643 41.1699 58.8175 41.3203 58.8175 41.4883H57.4112C57.4112 41.2383 57.4718 40.9961 57.5928 40.7617C57.7139 40.5273 57.8897 40.3184 58.1202 40.1348C58.3507 39.9512 58.6259 39.8066 58.9464 39.7012C59.2667 39.5957 59.626 39.543 60.0245 39.543C60.501 39.543 60.9229 39.623 61.2901 39.7832C61.6612 39.9434 61.9522 40.1855 62.1632 40.5098C62.378 40.8301 62.4854 41.2324 62.4854 41.7168V44.5352C62.4854 44.8242 62.5049 45.084 62.5439 45.3145C62.5869 45.541 62.6475 45.7383 62.7257 45.9062V46H61.2784C61.212 45.8477 61.1593 45.6543 61.1202 45.4199C61.085 45.1816 61.0675 44.9512 61.0675 44.7285ZM61.2724 42.1445L61.2843 43.0176H60.2705C60.0089 43.0176 59.7784 43.043 59.5792 43.0938C59.38 43.1406 59.2139 43.2109 59.0811 43.3047C58.9483 43.3984 58.8486 43.5117 58.7822 43.6445C58.7158 43.7773 58.6827 43.9277 58.6827 44.0957C58.6827 44.2637 58.7218 44.418 58.7999 44.5586C58.878 44.6953 58.9913 44.8027 59.1397 44.8809C59.2921 44.959 59.4757 44.998 59.6905 44.998C59.9796 44.998 60.2315 44.9395 60.4464 44.8223C60.6651 44.7012 60.837 44.5547 60.962 44.3828C61.087 44.207 61.1534 44.041 61.1612 43.8848L61.6182 44.5117C61.5714 44.6719 61.4913 44.8438 61.378 45.0273C61.2647 45.2109 61.1163 45.3867 60.9327 45.5547C60.753 45.7188 60.5361 45.8535 60.2822 45.959C60.0322 46.0645 59.7432 46.1172 59.4151 46.1172C59.001 46.1172 58.6319 46.0352 58.3077 45.8711C57.9835 45.7031 57.7296 45.4785 57.546 45.1973C57.3624 44.9121 57.2705 44.5898 57.2705 44.2305C57.2705 43.8945 57.333 43.5977 57.458 43.3398C57.5869 43.0781 57.7744 42.8594 58.0205 42.6836C58.2705 42.5078 58.5753 42.375 58.9346 42.2852C59.294 42.1914 59.7042 42.1445 60.1651 42.1445H61.2724ZM65.88 40.8672V46H64.4678V39.6602H65.8155L65.88 40.8672ZM67.8194 39.6191L67.8076 40.9316C67.7217 40.916 67.628 40.9043 67.5264 40.8965C67.4288 40.8887 67.3311 40.8848 67.2335 40.8848C66.9913 40.8848 66.7783 40.9199 66.5947 40.9902C66.4111 41.0566 66.2569 41.1543 66.1319 41.2832C66.0108 41.4082 65.9171 41.5605 65.8507 41.7402C65.7843 41.9199 65.7452 42.1211 65.7335 42.3438L65.4111 42.3672C65.4111 41.9688 65.4503 41.5996 65.5284 41.2598C65.6065 40.9199 65.7237 40.6211 65.88 40.3633C66.0401 40.1055 66.2393 39.9043 66.4776 39.7598C66.7198 39.6152 66.9991 39.543 67.3155 39.543C67.4014 39.543 67.4932 39.5508 67.5909 39.5664C67.6925 39.582 67.7686 39.5996 67.8194 39.6191ZM71.1495 45.3086L72.872 39.6602H74.3839L71.8409 46.9668C71.7823 47.123 71.7061 47.293 71.6124 47.4766C71.5186 47.6602 71.3955 47.834 71.2431 47.998C71.0947 48.166 70.9093 48.3008 70.6866 48.4023C70.4639 48.5078 70.1944 48.5605 69.878 48.5605C69.753 48.5605 69.6318 48.5488 69.5146 48.5254C69.4013 48.5059 69.294 48.4844 69.1925 48.4609L69.1866 47.3828C69.2257 47.3867 69.2724 47.3906 69.3271 47.3945C69.3857 47.3984 69.4326 47.4004 69.4678 47.4004C69.7022 47.4004 69.8974 47.3711 70.0537 47.3125C70.2099 47.2578 70.3369 47.168 70.4345 47.043C70.5361 46.918 70.6221 46.75 70.6925 46.5391L71.1495 45.3086ZM70.1768 39.6602L71.6826 44.4062L71.9345 45.8945L70.9561 46.1465L68.6534 39.6602H70.1768Z" fill="#3254ED"/>
</g>
<defs>
<filter id="filter0_d_89_142" x="27" y="0" width="71" height="66" filterUnits="userSpaceOnUse" color-interpolation-filters="sRGB">
<feFlood flood-opacity="0" result="BackgroundImageFix"/>
<feColorMatrix in="SourceAlpha" type="matrix" values="0 0 0 0 0 0 0 0 0 0 0 0 0 0 0 0 0 0 127 0" result="hardAlpha"/>
<feOffset dx="4" dy="4"/>
<feGaussianBlur stdDeviation="2"/>
<feComposite in2="hardAlpha" operator="out"/>
<feColorMatrix type="matrix" values="0 0 0 0 0 0 0 0 0 0 0 0 0 0 0 0 0 0 0.25 0"/>
<feBlend mode="normal" in2="BackgroundImageFix" result="effect1_dropShadow_89_142"/>
<feBlend mode="normal" in="SourceGraphic" in2="effect1_dropShadow_89_142" result="shape"/>
</filter>
</defs>
</svg>
