<svg width="250" height="193" viewBox="0 0 250 193" fill="none" xmlns="http://www.w3.org/2000/svg">
<g id="Frame" clip-path="url(#clip0_84_142)">
<path id="Vector" d="M240 1.5H10C5.30558 1.5 1.5 5.30558 1.5 10V183C1.5 187.694 5.30558 191.5 10 191.5H240C244.694 191.5 248.5 187.694 248.5 183V10C248.5 5.30558 244.694 1.5 240 1.5Z" fill="#DE2A3D" fill-opacity="0.4" stroke="black" stroke-width="3"/>
<path id="Vector_2" d="M25.3052 24.2699H27.2702V26.0849H30.0752V24.2699H32.0552V31.0049H25.3052V24.2699ZM27.2702 27.6149V29.4449H30.0752V27.6149H27.2702ZM26.6702 32.3849H36.1502V37.3349H34.1402V33.9599H26.6702V32.3849ZM34.1402 23.4449H36.1502V31.7399H34.1402V23.4449ZM43.559 24.2399H45.299V25.2449C45.299 28.2599 43.154 30.9299 39.554 31.6349L38.699 29.9849C41.834 29.4449 43.559 27.2399 43.559 25.2449V24.2399ZM43.964 24.2399H45.689V25.2449C45.689 27.2849 47.399 29.4449 50.549 29.9849L49.694 31.6349C46.094 30.9299 43.964 28.3049 43.964 25.2449V24.2399ZM38.414 34.0199H50.984V35.6399H38.414V34.0199ZM61.7229 23.4299H63.7329V37.3649H61.7229V23.4299ZM52.8879 24.5399H54.8679V27.9149H57.7329V24.5399H59.7129V34.1249H52.8879V24.5399ZM54.8679 29.4599V32.5199H57.7329V29.4599H54.8679ZM70.9084 23.8799H80.5984V28.0199H72.9634V30.1349H70.9384V26.5349H78.5734V25.4699H70.9084V23.8799ZM70.9384 29.1599H80.9434V30.7349H70.9384V29.1599ZM69.4684 31.7549H82.0534V33.3599H69.4684V31.7549ZM74.7334 32.3399H76.7284V37.3649H74.7334V32.3399ZM92.8072 23.4599H94.8172V33.7199H92.8072V23.4599ZM85.5622 35.5049H95.1622V37.0949H85.5622V35.5049ZM85.5622 32.8349H87.5572V36.5099H85.5622V32.8349ZM84.0322 30.1949H85.2172C88.0822 30.1949 89.7472 30.1649 91.6522 29.8499L91.8472 31.3949C89.8972 31.7249 88.1422 31.7699 85.2172 31.7699H84.0322V30.1949ZM84.0322 24.4949H90.7072V26.0849H86.0122V30.4349H84.0322V24.4949ZM85.3972 27.3449H90.3022V28.8899H85.3972V27.3449ZM39.9269 41.8799H49.6169V46.0199H41.9819V48.1349H39.9569V44.5349H47.5919V43.4699H39.9269V41.8799ZM39.9569 47.1599H49.9619V48.7349H39.9569V47.1599ZM38.4869 49.7549H51.0719V51.3599H38.4869V49.7549ZM43.7519 50.3399H45.7469V55.3649H43.7519V50.3399ZM61.8257 41.4599H63.8357V51.7199H61.8257V41.4599ZM54.5807 53.5049H64.1807V55.0949H54.5807V53.5049ZM54.5807 50.8349H56.5757V54.5099H54.5807V50.8349ZM53.0507 48.1949H54.2357C57.1007 48.1949 58.7657 48.1649 60.6707 47.8499L60.8657 49.3949C58.9157 49.7249 57.1607 49.7699 54.2357 49.7699H53.0507V48.1949ZM53.0507 42.4949H59.7257V44.0849H55.0307V48.4349H53.0507V42.4949ZM54.4157 45.3449H59.3207V46.8899H54.4157V45.3449ZM74.8363 50.3399H76.8163V55.3499H74.8363V50.3399ZM69.5713 49.7549H82.1263V51.3749H69.5713V49.7549ZM74.8213 43.9349H76.5763V44.2649C76.5763 46.5899 74.5663 48.6149 70.8913 49.0499L70.2013 47.4899C73.3363 47.1299 74.8213 45.5549 74.8213 44.2649V43.9349ZM75.0763 43.9349H76.8313V44.2649C76.8313 45.5249 78.3313 47.1299 81.4513 47.4899L80.7463 49.0499C77.0863 48.6299 75.0763 46.5299 75.0763 44.2649V43.9349ZM70.6963 43.0349H80.9863V44.6099H70.6963V43.0349ZM74.8363 41.4749H76.8163V43.5749H74.8363V41.4749ZM92.2351 41.4299H94.2451V55.3199H92.2351V41.4299ZM93.7201 46.7399H96.1651V48.3749H93.7201V46.7399ZM88.5901 42.8699H90.5401C90.5401 47.0399 88.9501 50.6099 84.3301 52.9349L83.2201 51.4199C86.8651 49.5299 88.5901 46.9799 88.5901 43.2149V42.8699ZM83.9851 42.8699H89.6101V44.4749H83.9851V42.8699ZM45.4619 63.1049H48.9719V64.6949H45.4619V63.1049ZM48.1169 59.4599H50.1119V69.5999H48.1169V59.4599ZM40.9469 71.5049H50.4269V73.0949H40.9469V71.5049ZM40.9469 68.5949H42.9419V72.3149H40.9469V68.5949ZM42.3269 60.2849C44.3819 60.2849 45.9869 61.7699 45.9869 63.8399C45.9869 65.8949 44.3819 67.3949 42.3269 67.3949C40.2569 67.3949 38.6519 65.8949 38.6519 63.8399C38.6519 61.7699 40.2569 60.2849 42.3269 60.2849ZM42.3269 62.0249C41.3219 62.0249 40.5569 62.6849 40.5569 63.8399C40.5569 64.9799 41.3219 65.6549 42.3269 65.6549C43.3169 65.6549 44.0819 64.9799 44.0819 63.8399C44.0819 62.6849 43.3169 62.0249 42.3269 62.0249ZM62.3207 59.4449H64.2107V73.3349H62.3207V59.4449ZM57.7457 64.1849H60.0407V65.8049H57.7457V64.1849ZM59.5157 59.6699H61.3757V72.7049H59.5157V59.6699ZM54.7457 61.7099H56.2457V63.1349C56.2457 66.2549 55.3907 69.3599 53.1857 70.7399L52.0007 69.2699C54.0407 67.9949 54.7457 65.5049 54.7457 63.1349V61.7099ZM55.1957 61.7099H56.6807V63.1349C56.6807 65.4449 57.3707 67.7849 59.3807 68.9549L58.2107 70.4099C56.0057 69.1049 55.1957 66.1949 55.1957 63.1349V61.7099ZM52.5257 60.8399H58.7207V62.4449H52.5257V60.8399ZM79.0963 59.4449H81.1063V66.4649H79.0963V59.4449ZM71.8363 67.0799H81.1063V70.8449H73.8163V72.2399H71.8663V69.4049H79.1263V68.5949H71.8363V67.0799ZM71.8663 71.6999H81.4513V73.2449H71.8663V71.6999ZM72.8113 59.7599H74.4613V60.8099C74.4613 63.3749 73.1713 65.6999 70.4563 66.5249L69.4963 64.9499C71.8213 64.2449 72.8113 62.5049 72.8113 60.8099V59.7599ZM73.2163 59.7599H74.8513V60.8099C74.8513 62.4599 75.8263 64.0799 78.0913 64.7249L77.1313 66.2699C74.4613 65.4899 73.2163 63.3149 73.2163 60.8099V59.7599ZM93.3001 59.4449H95.1901V68.1449H93.3001V59.4449ZM91.6051 62.8649H93.8251V64.4849H91.6051V62.8649ZM90.4201 59.7149H92.2801V67.6949H90.4201V59.7149ZM83.2951 60.8699H90.0301V62.3999H83.2951V60.8699ZM86.6851 62.8499C88.4251 62.8499 89.6851 63.8399 89.6851 65.2799C89.6851 66.7199 88.4251 67.6949 86.6851 67.6949C84.9451 67.6949 83.6851 66.7199 83.6851 65.2799C83.6851 63.8399 84.9451 62.8499 86.6851 62.8499ZM86.6851 64.2749C85.9501 64.2749 85.4551 64.6349 85.4551 65.2799C85.4551 65.9249 85.9501 66.2849 86.6851 66.2849C87.4051 66.2849 87.9001 65.9249 87.9001 65.2799C87.9001 64.6349 87.4051 64.2749 86.6851 64.2749ZM85.6801 59.5799H87.6451V61.9199H85.6801V59.5799ZM90.4951 68.2949C93.4651 68.2949 95.2651 69.1949 95.2651 70.8149C95.2651 72.4199 93.4651 73.3349 90.4951 73.3349C87.5101 73.3349 85.7101 72.4199 85.7101 70.8149C85.7101 69.1949 87.5101 68.2949 90.4951 68.2949ZM90.4951 69.7799C88.6351 69.7799 87.7051 70.0949 87.7051 70.8149C87.7051 71.5199 88.6351 71.8499 90.4951 71.8499C92.3401 71.8499 93.2701 71.5199 93.2701 70.8149C93.2701 70.0949 92.3401 69.7799 90.4951 69.7799ZM106.094 59.4299H108.089V66.9299H106.094V59.4299ZM107.294 62.3999H109.934V64.0199H107.294V62.3999ZM98.9089 67.4849H108.089V71.0099H100.919V72.2699H98.9389V69.6599H106.124V68.9249H98.9089V67.4849ZM98.9389 71.7749H108.494V73.2449H98.9389V71.7749ZM97.1539 60.4649H105.329V61.9649H97.1539V60.4649ZM101.249 62.2949C103.304 62.2949 104.654 63.1799 104.654 64.5749C104.654 65.9699 103.304 66.8249 101.249 66.8249C99.1789 66.8249 97.8289 65.9699 97.8289 64.5749C97.8289 63.1799 99.1789 62.2949 101.249 62.2949ZM101.249 63.6899C100.319 63.6899 99.7489 63.9899 99.7489 64.5749C99.7489 65.1299 100.319 65.4299 101.249 65.4299C102.179 65.4299 102.749 65.1299 102.749 64.5749C102.749 63.9899 102.179 63.6899 101.249 63.6899ZM100.244 59.3399H102.239V61.5299H100.244V59.3399ZM119.998 59.4449H121.993V73.3349H119.998V59.4449ZM121.378 64.8749H123.793V66.5249H121.378V64.8749ZM113.188 60.8549H115.048C115.048 64.7099 114.688 67.6649 112.228 70.4249L110.668 69.2999C112.813 66.9299 113.188 64.6199 113.188 61.0949V60.8549ZM111.283 60.8549H113.968V62.4749H111.283V60.8549ZM117.013 60.8549H118.873C118.873 64.8899 118.543 68.2949 116.128 71.3099L114.568 70.1999C116.668 67.5449 117.013 64.8749 117.013 61.0799V60.8549ZM115.513 60.8549H117.838V62.4749H115.513V60.8549ZM127.526 66.4949H129.506V70.3949H127.526V66.4949ZM132.566 66.4949H134.561V70.3949H132.566V66.4949ZM124.766 70.1099H137.336V71.7299H124.766V70.1099ZM131.036 60.1199C134.021 60.1199 136.226 61.5899 136.226 63.8549C136.226 66.1199 134.021 67.5749 131.036 67.5749C128.036 67.5749 125.846 66.1199 125.846 63.8549C125.846 61.5899 128.036 60.1199 131.036 60.1199ZM131.036 61.6799C129.101 61.6799 127.811 62.4749 127.811 63.8549C127.811 65.2199 129.101 66.0299 131.036 66.0299C132.971 66.0299 134.261 65.2199 134.261 63.8549C134.261 62.4749 132.971 61.6799 131.036 61.6799ZM140.805 68.7293V68.5482C140.809 67.9267 140.864 67.4314 140.97 67.062C141.081 66.6927 141.24 66.3944 141.45 66.1672C141.659 65.9399 141.911 65.7339 142.206 65.5493C142.426 65.4072 142.623 65.2598 142.797 65.1071C142.972 64.9544 143.11 64.7858 143.213 64.6011C143.316 64.4129 143.367 64.2034 143.367 63.9726C143.367 63.7275 143.309 63.5127 143.192 63.328C143.074 63.1434 142.916 63.0013 142.718 62.9019C142.522 62.8025 142.306 62.7527 142.068 62.7527C141.837 62.7527 141.619 62.8042 141.413 62.9072C141.207 63.0066 141.038 63.1558 140.907 63.3547C140.775 63.55 140.704 63.7932 140.693 64.0844H138.52C138.538 63.3742 138.708 62.7883 139.032 62.3266C139.355 61.8614 139.783 61.5152 140.315 61.2879C140.848 61.0571 141.436 60.9417 142.078 60.9417C142.785 60.9417 143.41 61.0588 143.953 61.2932C144.497 61.524 144.923 61.8596 145.232 62.3C145.541 62.7403 145.695 63.2712 145.695 63.8927C145.695 64.3081 145.626 64.6775 145.487 65.0006C145.353 65.3202 145.163 65.6043 144.918 65.8529C144.672 66.0979 144.383 66.3199 144.049 66.5187C143.769 66.6856 143.538 66.8596 143.357 67.0407C143.179 67.2218 143.046 67.4314 142.957 67.6693C142.872 67.9072 142.828 68.2002 142.824 68.5482V68.7293H140.805ZM141.86 72.1384C141.505 72.1384 141.201 72.0141 140.949 71.7655C140.701 71.5134 140.578 71.2115 140.582 70.86C140.578 70.512 140.701 70.2137 140.949 69.9651C141.201 69.7165 141.505 69.5922 141.86 69.5922C142.197 69.5922 142.494 69.7165 142.75 69.9651C143.005 70.2137 143.135 70.512 143.138 70.86C143.135 71.0944 143.073 71.3092 142.952 71.5045C142.835 71.6963 142.68 71.8508 142.489 71.9679C142.297 72.0816 142.087 72.1384 141.86 72.1384ZM41.5769 78.9899H43.2119V79.8599C43.2119 82.5149 41.9669 84.8999 39.2819 85.7849L38.2919 84.2099C40.6019 83.4449 41.5769 81.6299 41.5769 79.8599V78.9899ZM41.9819 78.9899H43.6019V79.8599C43.6019 81.4799 44.5319 83.0699 46.7669 83.7449L45.8219 85.3049C43.1819 84.5099 41.9819 82.3349 41.9819 79.8599V78.9899ZM38.8169 78.3749H46.3169V79.9649H38.8169V78.3749ZM47.4269 77.4449H49.4219V85.6799H47.4269V77.4449ZM48.8669 80.6399H51.2669V82.2749H48.8669V80.6399ZM44.8919 85.9349C47.7719 85.9349 49.5869 86.9399 49.5869 88.6349C49.5869 90.3299 47.7719 91.3349 44.8919 91.3349C41.9969 91.3349 40.1819 90.3299 40.1819 88.6349C40.1819 86.9399 41.9969 85.9349 44.8919 85.9349ZM44.8919 87.4949C43.1219 87.4949 42.1619 87.8549 42.1619 88.6349C42.1619 89.4149 43.1219 89.8049 44.8919 89.8049C46.6619 89.8049 47.6069 89.4149 47.6069 88.6349C47.6069 87.8549 46.6619 87.4949 44.8919 87.4949ZM52.3007 88.0799H64.8707V89.7149H52.3007V88.0799ZM57.5207 84.9899H59.5007V88.5149H57.5207V84.9899ZM57.4457 78.2099H59.1857V79.2149C59.1857 82.1699 57.0407 84.7799 53.4107 85.4399L52.5857 83.7749C55.7507 83.2649 57.4457 81.1349 57.4457 79.2149V78.2099ZM57.8357 78.2099H59.5757V79.2149C59.5757 81.1799 61.2707 83.2649 64.4507 83.7749L63.6257 85.4399C59.9807 84.7649 57.8357 82.2149 57.8357 79.2149V78.2099ZM41.6069 96.5099H43.2269V98.5349C43.2269 101.97 42.0269 105.195 39.4019 106.485L38.2019 104.88C40.5419 103.785 41.6069 101.115 41.6069 98.5349V96.5099ZM42.0119 96.5099H43.6019V98.5349C43.6019 101.025 44.5919 103.56 46.8119 104.64L45.6119 106.23C43.1069 104.955 42.0119 101.865 42.0119 98.5349V96.5099ZM47.3669 95.4449H49.3769V109.335H47.3669V95.4449ZM48.9269 100.785H51.3869V102.45H48.9269V100.785ZM55.1057 100.095H57.1007V102.645H55.1057V100.095ZM59.9957 100.095H61.9757V102.645H59.9957V100.095ZM52.2857 102.03H64.8407V103.605H52.2857V102.03ZM58.5407 104.31C61.5407 104.31 63.3557 105.21 63.3557 106.815C63.3557 108.435 61.5407 109.335 58.5407 109.335C55.5257 109.335 53.7107 108.435 53.7107 106.815C53.7107 105.21 55.5257 104.31 58.5407 104.31ZM58.5407 105.81C56.6807 105.81 55.7357 106.125 55.7357 106.815C55.7357 107.52 56.6807 107.835 58.5407 107.835C60.4007 107.835 61.3457 107.52 61.3457 106.815C61.3457 106.125 60.4007 105.81 58.5407 105.81ZM58.5707 95.6399C61.6307 95.6399 63.5957 96.6599 63.5957 98.3249C63.5957 99.9749 61.6307 100.965 58.5707 100.965C55.4957 100.965 53.5457 99.9749 53.5457 98.3249C53.5457 96.6599 55.4957 95.6399 58.5707 95.6399ZM58.5707 97.1699C56.6657 97.1699 55.6007 97.5449 55.6007 98.3249C55.6007 99.0899 56.6657 99.4649 58.5707 99.4649C60.4757 99.4649 61.5407 99.0899 61.5407 98.3249C61.5407 97.5449 60.4757 97.1699 58.5707 97.1699ZM69.2046 97.6349H70.7796V99.1949C70.7796 102.33 69.4596 105.525 66.9096 106.725L65.7846 105.15C68.0796 104.07 69.2046 101.475 69.2046 99.1949V97.6349ZM69.6246 97.6349H71.1996V99.1949C71.1996 101.295 72.2796 103.755 74.5596 104.805L73.4646 106.38C70.9146 105.195 69.6246 102.15 69.6246 99.1949V97.6349ZM66.3246 96.7799H73.9446V98.4149H66.3246V96.7799ZM74.9646 95.4449H76.9746V109.335H74.9646V95.4449ZM76.5246 100.74H78.9846V102.39H76.5246V100.74ZM84.3534 96.3599C86.5434 96.3599 88.1784 97.7849 88.1784 99.7799C88.1784 101.79 86.5434 103.215 84.3534 103.215C82.1784 103.215 80.5134 101.79 80.5134 99.7799C80.5134 97.7849 82.1784 96.3599 84.3534 96.3599ZM84.3534 98.0699C83.2884 98.0699 82.4784 98.6999 82.4784 99.7799C82.4784 100.875 83.2884 101.505 84.3534 101.505C85.4184 101.505 86.2284 100.875 86.2284 99.7799C86.2284 98.6999 85.4184 98.0699 84.3534 98.0699ZM89.4834 95.4299H91.4784V109.365H89.4834V95.4299ZM80.1834 106.545L79.9434 104.94C82.3884 104.94 85.7934 104.91 88.7184 104.475L88.8684 105.915C85.8534 106.515 82.5834 106.545 80.1834 106.545ZM100.529 96.6449H102.164V97.4999C102.164 99.9899 100.874 102.24 98.2039 103.05L97.1989 101.49C99.5239 100.815 100.529 99.1349 100.529 97.4999V96.6449ZM100.934 96.6449H102.569V97.4999C102.569 99.0449 103.574 100.62 105.824 101.265L104.849 102.81C102.224 102.045 100.934 99.8999 100.934 97.4999V96.6449ZM97.7389 96.1949H105.299V97.7699H97.7389V96.1949ZM106.694 95.4449H108.704V102.975H106.694V95.4449ZM99.4639 103.575H101.429V104.835H106.724V103.575H108.704V109.185H99.4639V103.575ZM101.429 106.38V107.595H106.724V106.38H101.429ZM117.238 96.1349C120.163 96.1349 122.428 97.7399 122.428 100.155C122.428 102.585 120.163 104.175 117.238 104.175C114.313 104.175 112.048 102.585 112.048 100.155C112.048 97.7399 114.313 96.1349 117.238 96.1349ZM117.238 97.7549C115.348 97.7549 113.998 98.6549 113.998 100.155C113.998 101.64 115.348 102.54 117.238 102.54C119.128 102.54 120.478 101.64 120.478 100.155C120.478 98.6549 119.128 97.7549 117.238 97.7549ZM110.968 106.035H123.538V107.67H110.968V106.035ZM124.766 106.185H137.336V107.805H124.766V106.185ZM130.031 103.56H132.026V106.845H130.031V103.56ZM126.176 96.3449H135.926V100.965H128.186V103.305H126.206V99.4049H133.946V97.9199H126.176V96.3449ZM126.206 102.51H136.241V104.115H126.206V102.51ZM149.117 97.4699H152.537V99.0599H149.117V97.4699ZM151.652 95.4449H153.647V102.495H151.652V95.4449ZM144.467 103.08H153.647V106.815H146.462V108.555H144.497V105.375H151.667V104.61H144.467V103.08ZM144.497 107.64H154.037V109.185H144.497V107.64ZM145.202 95.8949H146.822V96.8849C146.822 99.5099 145.592 101.775 142.937 102.615L141.917 101.04C144.227 100.35 145.202 98.6549 145.202 96.8849V95.8949ZM145.592 95.8949H147.212V96.8849C147.212 98.5349 148.142 100.14 150.332 100.8L149.312 102.345C146.777 101.52 145.592 99.3749 145.592 96.8849V95.8949ZM163.351 98.8049H165.991V100.425H163.351V98.8049ZM165.451 95.4449H167.446V103.695H165.451V95.4449ZM162.736 103.995C165.676 103.995 167.491 105 167.491 106.68C167.491 108.375 165.676 109.35 162.736 109.35C159.796 109.35 157.981 108.375 157.981 106.68C157.981 105 159.796 103.995 162.736 103.995ZM162.736 105.51C160.936 105.51 159.976 105.885 159.976 106.68C159.976 107.46 160.936 107.835 162.736 107.835C164.551 107.835 165.511 107.46 165.511 106.68C165.511 105.885 164.551 105.51 162.736 105.51ZM159.031 96.8399H160.651V97.7099C160.651 100.365 159.421 102.795 156.766 103.695L155.746 102.12C158.041 101.34 159.031 99.4949 159.031 97.7099V96.8399ZM159.451 96.8399H161.056V97.7099C161.056 99.3449 162.001 101.04 164.191 101.775L163.216 103.35C160.636 102.495 159.451 100.185 159.451 97.7099V96.8399ZM156.286 96.2849H163.756V97.8749H156.286V96.2849ZM41.7119 114.195C43.5569 114.195 44.8919 115.515 44.8919 117.42C44.8919 119.325 43.5569 120.645 41.7119 120.645C39.8519 120.645 38.5319 119.325 38.5319 117.42C38.5319 115.515 39.8519 114.195 41.7119 114.195ZM41.7119 115.8C40.9019 115.8 40.3319 116.385 40.3319 117.42C40.3319 118.44 40.9019 119.025 41.7119 119.025C42.5069 119.025 43.0919 118.44 43.0919 117.42C43.0919 116.385 42.5069 115.8 41.7119 115.8ZM48.4319 113.46H50.3219V120.99H48.4319V113.46ZM46.8119 116.34H49.0169V117.945H46.8119V116.34ZM45.4919 113.715H47.3519V120.9H45.4919V113.715ZM40.9019 121.575H42.8669V122.82H48.3719V121.575H50.3219V127.185H40.9019V121.575ZM42.8669 124.365V125.595H48.3719V124.365H42.8669ZM58.5707 113.64C61.7357 113.64 63.5957 114.48 63.5957 116.01C63.5957 117.54 61.7357 118.38 58.5707 118.38C55.3907 118.38 53.5457 117.54 53.5457 116.01C53.5457 114.48 55.3907 113.64 58.5707 113.64ZM58.5707 115.095C56.5607 115.095 55.6157 115.395 55.6157 116.01C55.6157 116.655 56.5607 116.925 58.5707 116.925C60.5807 116.925 61.5257 116.655 61.5257 116.01C61.5257 115.395 60.5807 115.095 58.5707 115.095ZM52.2857 119.025H64.8407V120.6H52.2857V119.025ZM53.7257 121.38H63.3257V124.95H55.7057V126.18H53.7407V123.57H61.3607V122.865H53.7257V121.38ZM53.7407 125.745H63.6857V127.245H53.7407V125.745ZM76.0063 114.84H79.5613V116.385H76.0063V114.84ZM76.0063 117.66H79.5613V119.205H76.0063V117.66ZM73.3963 113.82C75.4963 113.82 77.0563 115.155 77.0563 117.045C77.0563 118.905 75.4963 120.24 73.3963 120.24C71.2963 120.24 69.7213 118.905 69.7213 117.045C69.7213 115.155 71.2963 113.82 73.3963 113.82ZM73.3963 115.44C72.3613 115.44 71.6263 116.025 71.6263 117.045C71.6263 118.05 72.3613 118.635 73.3963 118.635C74.4313 118.635 75.1663 118.05 75.1663 117.045C75.1663 116.025 74.4313 115.44 73.3963 115.44ZM79.1863 113.445H81.1813V120.39H79.1863V113.445ZM72.0013 120.975H81.1813V124.755H73.9963V126.45H72.0163V123.315H79.2013V122.505H72.0013V120.975ZM72.0163 125.64H81.5713V127.185H72.0163V125.64ZM92.9851 113.445H94.9801V127.335H92.9851V113.445ZM90.3001 118.77H93.9451V120.39H90.3001V118.77ZM88.4251 114.885H90.3901C90.3901 119.1 89.0551 122.535 84.2401 124.95L83.1901 123.39C87.1201 121.44 88.4251 118.92 88.4251 115.245V114.885ZM83.8501 114.885H89.4751V116.46H83.8501V114.885ZM107.519 118.695H109.964V120.33H107.519V118.695ZM106.034 113.43H108.044V127.32H106.034V113.43ZM97.5739 114.765H99.5689V123.39H97.5739V114.765ZM97.5739 122.28H98.7739C100.754 122.28 102.899 122.145 105.134 121.695L105.344 123.33C103.049 123.81 100.814 123.93 98.7739 123.93H97.5739V122.28ZM117.649 114.195C119.494 114.195 120.829 115.515 120.829 117.42C120.829 119.325 119.494 120.645 117.649 120.645C115.789 120.645 114.469 119.325 114.469 117.42C114.469 115.515 115.789 114.195 117.649 114.195ZM117.649 115.8C116.839 115.8 116.269 116.385 116.269 117.42C116.269 118.44 116.839 119.025 117.649 119.025C118.444 119.025 119.029 118.44 119.029 117.42C119.029 116.385 118.444 115.8 117.649 115.8ZM124.369 113.46H126.259V120.99H124.369V113.46ZM122.749 116.34H124.954V117.945H122.749V116.34ZM121.429 113.715H123.289V120.9H121.429V113.715ZM116.839 121.575H118.804V122.82H124.309V121.575H126.259V127.185H116.839V121.575ZM118.804 124.365V125.595H124.309V124.365H118.804ZM131.71 119.97H144.28V121.56H131.71V119.97ZM137.005 117.885H138.985V120.585H137.005V117.885ZM133.225 117.255H142.855V118.83H133.225V117.255ZM133.225 114.045H142.78V115.605H135.205V118.26H133.225V114.045ZM137.95 122.25C140.95 122.25 142.765 123.165 142.765 124.8C142.765 126.435 140.95 127.35 137.95 127.35C134.95 127.35 133.12 126.435 133.12 124.8C133.12 123.165 134.95 122.25 137.95 122.25ZM137.95 123.75C136.09 123.75 135.145 124.095 135.145 124.8C135.145 125.52 136.09 125.835 137.95 125.835C139.81 125.835 140.755 125.52 140.755 124.8C140.755 124.095 139.81 123.75 137.95 123.75ZM148.584 114.87H150.219V115.74C150.219 118.365 148.974 120.72 146.319 121.575L145.284 120.03C147.609 119.28 148.584 117.48 148.584 115.74V114.87ZM148.989 114.87H150.609V115.74C150.609 117.375 151.554 119.07 153.804 119.79L152.784 121.335C150.189 120.495 148.989 118.23 148.989 115.74V114.87ZM145.824 114.255H153.324V115.845H145.824V114.255ZM154.434 113.445H156.429V121.815H154.434V113.445ZM155.874 116.805H158.274V118.44H155.874V116.805ZM147.159 122.415H156.429V127.335H154.434V124.02H147.159V122.415ZM171.644 113.445H173.654V127.335H171.644V113.445ZM173.204 118.62H175.664V120.27H173.204V118.62ZM163.184 114.54H165.164V117.915H167.954V114.54H169.934V124.125H163.184V114.54ZM165.164 119.46V122.52H167.954V119.46H165.164ZM176.578 124.185H189.148V125.805H176.578V124.185ZM181.843 121.56H183.838V124.845H181.843V121.56ZM177.988 114.345H187.738V118.965H179.998V121.305H178.018V117.405H185.758V115.92H177.988V114.345ZM178.018 120.51H188.053V122.115H178.018V120.51ZM203.373 113.445H205.383V120.465H203.373V113.445ZM196.113 121.08H205.383V124.845H198.093V126.24H196.143V123.405H203.403V122.595H196.113V121.08ZM196.143 125.7H205.728V127.245H196.143V125.7ZM197.088 113.76H198.738V114.81C198.738 117.375 197.448 119.7 194.733 120.525L193.773 118.95C196.098 118.245 197.088 116.505 197.088 114.81V113.76ZM197.493 113.76H199.128V114.81C199.128 116.46 200.103 118.08 202.368 118.725L201.408 120.27C198.738 119.49 197.493 117.315 197.493 114.81V113.76ZM217.577 113.445H219.467V122.145H217.577V113.445ZM215.882 116.865H218.102V118.485H215.882V116.865ZM214.697 113.715H216.557V121.695H214.697V113.715ZM207.572 114.87H214.307V116.4H207.572V114.87ZM210.962 116.85C212.702 116.85 213.962 117.84 213.962 119.28C213.962 120.72 212.702 121.695 210.962 121.695C209.222 121.695 207.962 120.72 207.962 119.28C207.962 117.84 209.222 116.85 210.962 116.85ZM210.962 118.275C210.227 118.275 209.732 118.635 209.732 119.28C209.732 119.925 210.227 120.285 210.962 120.285C211.682 120.285 212.177 119.925 212.177 119.28C212.177 118.635 211.682 118.275 210.962 118.275ZM209.957 113.58H211.922V115.92H209.957V113.58ZM214.772 122.295C217.742 122.295 219.542 123.195 219.542 124.815C219.542 126.42 217.742 127.335 214.772 127.335C211.787 127.335 209.987 126.42 209.987 124.815C209.987 123.195 211.787 122.295 214.772 122.295ZM214.772 123.78C212.912 123.78 211.982 124.095 211.982 124.815C211.982 125.52 212.912 125.85 214.772 125.85C216.617 125.85 217.547 125.52 217.547 124.815C217.547 124.095 216.617 123.78 214.772 123.78ZM42.2969 132.405C44.3669 132.405 45.8819 134.325 45.8819 137.355C45.8819 140.415 44.3669 142.335 42.2969 142.335C40.2119 142.335 38.7119 140.415 38.7119 137.355C38.7119 134.325 40.2119 132.405 42.2969 132.405ZM42.2969 134.22C41.2919 134.22 40.6169 135.315 40.6169 137.355C40.6169 139.425 41.2919 140.535 42.2969 140.535C43.3169 140.535 43.9769 139.425 43.9769 137.355C43.9769 135.315 43.3169 134.22 42.2969 134.22ZM48.1619 131.43H50.1419V145.365H48.1619V131.43ZM45.2969 136.44H49.0019V138.045H45.2969V136.44ZM62.1857 131.445H64.1957V145.335H62.1857V131.445ZM52.5257 132.66H56.6357V134.25H52.5257V132.66ZM57.0857 132.66H60.9857V134.25H57.0857V132.66ZM60.5357 136.17H63.3107V137.79H60.5357V136.17ZM53.9657 133.83H55.4207V134.985C55.4207 137.97 55.1207 141.015 53.2307 142.485L52.0007 141.06C53.7257 139.74 53.9657 137.295 53.9657 134.985V133.83ZM54.4307 133.83H55.8407V134.985C55.8407 137.13 56.0807 139.71 57.9107 141.165L56.8607 142.635C54.7757 141.075 54.4307 137.775 54.4307 134.985V133.83ZM57.8807 133.83H59.2907V134.985C59.2907 137.82 58.9307 141.09 56.8607 142.635L55.8107 141.165C57.6257 139.725 57.8807 137.16 57.8807 134.985V133.83ZM58.3157 133.83H59.7857V134.985C59.7857 137.325 60.0257 139.74 61.7507 141.06L60.5207 142.485C58.6307 141.015 58.3157 138 58.3157 134.985V133.83ZM67.3746 132.615H76.1796V134.22H67.3746V132.615ZM66.0996 142.05H78.6546V143.67H66.0996V142.05ZM70.5396 137.28H72.5346V142.845H70.5396V137.28ZM75.4596 132.615H77.4546V133.95C77.4546 135.69 77.4546 137.64 76.8996 140.61L74.9046 140.385C75.4596 137.625 75.4596 135.615 75.4596 133.95V132.615ZM90.3601 135.78H94.0201V137.385H90.3601V135.78ZM86.5801 132.51H88.2001V134.52C88.2001 138.015 87.0151 141.24 84.4051 142.545L83.1601 140.94C85.5301 139.845 86.5801 137.16 86.5801 134.52V132.51ZM87.0001 132.51H88.5901V134.52C88.5901 137.16 89.5951 139.695 91.8901 140.715L90.7051 142.305C88.0951 141.045 87.0001 137.985 87.0001 134.52V132.51ZM93.0301 131.43H95.0101V145.365H93.0301V131.43ZM106.679 131.43H108.689V145.365H106.679V131.43ZM97.8439 132.54H99.8239V135.915H102.689V132.54H104.669V142.125H97.8439V132.54ZM99.8239 137.46V140.52H102.689V137.46H99.8239ZM116.113 132.24H117.853V133.245C117.853 136.26 115.708 138.93 112.108 139.635L111.253 137.985C114.388 137.445 116.113 135.24 116.113 133.245V132.24ZM116.518 132.24H118.243V133.245C118.243 135.285 119.953 137.445 123.103 137.985L122.248 139.635C118.648 138.93 116.518 136.305 116.518 133.245V132.24ZM110.968 142.02H123.538V143.64H110.968V142.02ZM135.318 134.4H138.543V136.005H135.318V134.4ZM131.403 132.3H133.008V133.8C133.008 136.635 131.823 139.05 129.198 140.01L128.148 138.45C130.443 137.685 131.403 135.765 131.403 133.8V132.3ZM131.838 132.3H133.428V133.815C133.428 135.6 134.343 137.385 136.533 138.135L135.468 139.665C132.978 138.765 131.838 136.44 131.838 133.815V132.3ZM137.853 131.46H139.848V141.705H137.853V131.46ZM130.653 143.505H140.148V145.095H130.653V143.505ZM130.653 140.67H132.663V144.39H130.653V140.67ZM142.487 137.775H143.447C145.457 137.775 146.747 137.745 148.277 137.49L148.457 139.08C146.867 139.35 145.517 139.395 143.447 139.395H142.487V137.775ZM142.487 132.375H147.962V133.965H144.407V138.66H142.487V132.375ZM143.837 135.09H147.812V136.59H143.837V135.09ZM151.967 131.445H153.857V139.92H151.967V131.445ZM150.302 134.85H152.507V136.44H150.302V134.85ZM148.997 131.7H150.857V139.83H148.997V131.7ZM144.317 140.52H153.857V145.335H151.877V142.11H144.317V140.52Z" fill="black"/>
<path id="Vector_3" d="M26 142V132L31 137L26 142Z" fill="#1D1B20"/>
<path id="Vector_4" d="M26 125V115L31 120L26 125Z" fill="#1D1B20"/>
<path id="Vector_5" d="M26 90V80L31 85L26 90Z" fill="#1D1B20"/>
<path id="Vector_6" d="M26 71V61L31 66L26 71Z" fill="#1D1B20"/>
<path id="Vector_7" d="M26 108V98L31 103L26 108Z" fill="#1D1B20"/>
<path id="Vector_8" d="M26 52V42L31 47L26 52Z" fill="#1D1B20"/>
</g>
<defs>
<clipPath id="clip0_84_142">
<rect width="250" height="193" fill="white"/>
</clipPath>
</defs>
</svg>
