<svg width="120" height="66" viewBox="0 0 120 66" fill="none" xmlns="http://www.w3.org/2000/svg">
<g id="Frame">
<g id="Group" filter="url(#filter0_d_89_136)">
<path id="Vector" d="M91 29C91 45.0163 76.8966 58 59.5 58C42.1034 58 28 45.0163 28 29C28 12.9837 42.1034 0 59.5 0C76.8966 0 91 12.9837 91 29Z" fill="white"/>
</g>
<path id="Vector_2" d="M56 32.3326V20.6659H64V32.3326M48 17.1659L60 8.99927L72 17.1659V29.9993C72 30.6181 71.719 31.2116 71.219 31.6492C70.7189 32.0868 70.0406 32.3326 69.3333 32.3326H50.6667C49.9594 32.3326 49.2811 32.0868 48.781 31.6492C48.281 31.2116 48 30.6181 48 29.9993V17.1659Z" stroke="#3254ED" stroke-width="2" stroke-linecap="round" stroke-linejoin="round"/>
<path id="Vector_3" d="M49.3135 39.0305V40.1965H44.7843V39.0305H49.3135ZM45.1475 35.468V43.9993H43.6768V35.468H45.1475ZM50.4444 35.468V43.9993H48.9796V35.468H50.4444ZM52.2862 40.8997V40.7649C52.2862 40.3079 52.3526 39.884 52.4854 39.4934C52.6182 39.0989 52.8096 38.7571 53.0596 38.468C53.3135 38.175 53.6221 37.9485 53.9854 37.7883C54.3526 37.6243 54.7667 37.5422 55.2276 37.5422C55.6925 37.5422 56.1065 37.6243 56.4698 37.7883C56.837 37.9485 57.1475 38.175 57.4014 38.468C57.6553 38.7571 57.8487 39.0989 57.9815 39.4934C58.1143 39.884 58.1807 40.3079 58.1807 40.7649V40.8997C58.1807 41.3567 58.1143 41.7805 57.9815 42.1711C57.8487 42.5618 57.6553 42.9036 57.4014 43.1965C57.1475 43.4856 56.8389 43.7122 56.4757 43.8762C56.1124 44.0364 55.7003 44.1165 55.2393 44.1165C54.7745 44.1165 54.3585 44.0364 53.9913 43.8762C53.628 43.7122 53.3194 43.4856 53.0655 43.1965C52.8116 42.9036 52.6182 42.5618 52.4854 42.1711C52.3526 41.7805 52.2862 41.3567 52.2862 40.8997ZM53.6983 40.7649V40.8997C53.6983 41.1848 53.7276 41.4543 53.7862 41.7083C53.8448 41.9622 53.9366 42.1848 54.0616 42.3762C54.1866 42.5676 54.3468 42.718 54.5421 42.8274C54.7374 42.9368 54.9698 42.9915 55.2393 42.9915C55.501 42.9915 55.7276 42.9368 55.919 42.8274C56.1143 42.718 56.2745 42.5676 56.3995 42.3762C56.5245 42.1848 56.6163 41.9622 56.6749 41.7083C56.7374 41.4543 56.7686 41.1848 56.7686 40.8997V40.7649C56.7686 40.4836 56.7374 40.218 56.6749 39.968C56.6163 39.7141 56.5225 39.4895 56.3936 39.2942C56.2686 39.0989 56.1085 38.9465 55.9132 38.8372C55.7218 38.7239 55.4932 38.6672 55.2276 38.6672C54.962 38.6672 54.7315 38.7239 54.5362 38.8372C54.3448 38.9465 54.1866 39.0989 54.0616 39.2942C53.9366 39.4895 53.8448 39.7141 53.7862 39.968C53.7276 40.218 53.6983 40.4836 53.6983 40.7649ZM61.2764 38.9485V43.9993H59.8643V37.6594H61.1944L61.2764 38.9485ZM61.0479 40.595L60.5675 40.5891C60.5675 40.1516 60.6221 39.7473 60.7315 39.3762C60.8409 39.0051 61.001 38.6829 61.212 38.4094C61.4229 38.1321 61.6846 37.9192 61.9971 37.7708C62.3135 37.6184 62.6788 37.5422 63.0928 37.5422C63.3819 37.5422 63.6456 37.5852 63.8839 37.6711C64.126 37.7532 64.335 37.884 64.5108 38.0637C64.6905 38.2434 64.8272 38.4739 64.921 38.7551C65.0186 39.0364 65.0675 39.3762 65.0675 39.7747V43.9993H63.6553V39.8977C63.6553 39.5891 63.6085 39.3469 63.5147 39.1711C63.4249 38.9954 63.294 38.8704 63.1221 38.7961C62.9542 38.718 62.753 38.679 62.5186 38.679C62.253 38.679 62.0264 38.7297 61.8389 38.8313C61.6553 38.9329 61.505 39.0715 61.3878 39.2473C61.2706 39.4231 61.1846 39.6262 61.13 39.8567C61.0753 40.0872 61.0479 40.3333 61.0479 40.595ZM64.9796 40.22L64.3175 40.3665C64.3175 39.9836 64.3702 39.6223 64.4757 39.2825C64.585 38.9387 64.7432 38.6379 64.9503 38.3801C65.1612 38.1184 65.421 37.9133 65.7296 37.7649C66.0382 37.6165 66.3917 37.5422 66.7901 37.5422C67.1143 37.5422 67.4034 37.5872 67.6573 37.677C67.9151 37.7629 68.1339 37.8997 68.3135 38.0872C68.4932 38.2747 68.63 38.5188 68.7237 38.8196C68.8175 39.1165 68.8643 39.4758 68.8643 39.8977V43.9993H67.4464V39.8918C67.4464 39.5715 67.3995 39.3235 67.3057 39.1477C67.2159 38.9719 67.087 38.8508 66.919 38.7844C66.751 38.7141 66.5499 38.679 66.3155 38.679C66.0968 38.679 65.9034 38.72 65.7354 38.802C65.5714 38.8801 65.4327 38.9915 65.3194 39.136C65.2061 39.2766 65.1202 39.4387 65.0616 39.6223C65.0069 39.8059 64.9796 40.0051 64.9796 40.22ZM73.6124 44.1165C73.1436 44.1165 72.7198 44.0403 72.3409 43.8879C71.9659 43.7317 71.6456 43.5149 71.38 43.2375C71.1182 42.9602 70.9171 42.634 70.7764 42.259C70.6358 41.884 70.5655 41.4797 70.5655 41.0461V40.8118C70.5655 40.3157 70.6378 39.8665 70.7823 39.4641C70.9268 39.0618 71.128 38.718 71.3858 38.4329C71.6436 38.1438 71.9483 37.9231 72.2999 37.7708C72.6514 37.6184 73.0323 37.5422 73.4425 37.5422C73.8956 37.5422 74.2921 37.6184 74.6319 37.7708C74.9718 37.9231 75.253 38.1379 75.4757 38.4153C75.7022 38.6887 75.8702 39.0149 75.9796 39.3938C76.0928 39.7727 76.1495 40.1907 76.1495 40.6477V41.2512H71.251V40.2375H74.755V40.1262C74.7471 39.8723 74.6964 39.634 74.6026 39.4114C74.5128 39.1887 74.3741 39.009 74.1866 38.8723C73.9991 38.7356 73.7491 38.6672 73.4366 38.6672C73.2022 38.6672 72.9932 38.718 72.8096 38.8196C72.63 38.9172 72.4796 39.0598 72.3585 39.2473C72.2374 39.4348 72.1436 39.6614 72.0772 39.927C72.0147 40.1887 71.9835 40.4836 71.9835 40.8118V41.0461C71.9835 41.3235 72.0206 41.5813 72.0948 41.8196C72.1729 42.054 72.2862 42.259 72.4346 42.4348C72.5831 42.6106 72.7628 42.7493 72.9737 42.8508C73.1846 42.9485 73.4249 42.9973 73.6944 42.9973C74.0343 42.9973 74.337 42.929 74.6026 42.7922C74.8682 42.6555 75.0987 42.4622 75.294 42.2122L76.0382 42.9329C75.9014 43.1321 75.7237 43.3235 75.505 43.5071C75.2862 43.6868 75.0186 43.8333 74.7022 43.9465C74.3897 44.0598 74.0264 44.1165 73.6124 44.1165Z" fill="#3254ED"/>
</g>
<defs>
<filter id="filter0_d_89_136" x="28" y="0" width="71" height="66" filterUnits="userSpaceOnUse" color-interpolation-filters="sRGB">
<feFlood flood-opacity="0" result="BackgroundImageFix"/>
<feColorMatrix in="SourceAlpha" type="matrix" values="0 0 0 0 0 0 0 0 0 0 0 0 0 0 0 0 0 0 127 0" result="hardAlpha"/>
<feOffset dx="4" dy="4"/>
<feGaussianBlur stdDeviation="2"/>
<feComposite in2="hardAlpha" operator="out"/>
<feColorMatrix type="matrix" values="0 0 0 0 0 0 0 0 0 0 0 0 0 0 0 0 0 0 0.25 0"/>
<feBlend mode="normal" in2="BackgroundImageFix" result="effect1_dropShadow_89_136"/>
<feBlend mode="normal" in="SourceGraphic" in2="effect1_dropShadow_89_136" result="shape"/>
</filter>
</defs>
</svg>
