<svg width="120" height="46" viewBox="0 0 120 46" fill="none" xmlns="http://www.w3.org/2000/svg">
<g id="Frame">
<path id="Vector" d="M49.3135 37.0312V38.1973H44.7843V37.0312H49.3135ZM45.1475 33.4688V42H43.6768V33.4688H45.1475ZM50.4444 33.4688V42H48.9796V33.4688H50.4444ZM52.2862 38.9003V38.7655C52.2862 38.3085 52.3526 37.8847 52.4854 37.494C52.6182 37.0995 52.8096 36.7578 53.0596 36.4688C53.3135 36.1758 53.6221 35.9492 53.9854 35.7891C54.3526 35.625 54.7667 35.5429 55.2276 35.5429C55.6925 35.5429 56.1065 35.625 56.4698 35.7891C56.837 35.9492 57.1475 36.1758 57.4014 36.4688C57.6553 36.7578 57.8487 37.0995 57.9815 37.494C58.1143 37.8847 58.1807 38.3085 58.1807 38.7655V38.9003C58.1807 39.3573 58.1143 39.7812 57.9815 40.1719C57.8487 40.5625 57.6553 40.9043 57.4014 41.1973C57.1475 41.4862 56.8389 41.7128 56.4757 41.8769C56.1124 42.037 55.7003 42.1171 55.2393 42.1171C54.7745 42.1171 54.3585 42.037 53.9913 41.8769C53.628 41.7128 53.3194 41.4862 53.0655 41.1973C52.8116 40.9043 52.6182 40.5625 52.4854 40.1719C52.3526 39.7812 52.2862 39.3573 52.2862 38.9003ZM53.6983 38.7655V38.9003C53.6983 39.1854 53.7276 39.455 53.7862 39.709C53.8448 39.9629 53.9366 40.1854 54.0616 40.3769C54.1866 40.5683 54.3468 40.7187 54.5421 40.828C54.7374 40.9374 54.9698 40.9921 55.2393 40.9921C55.501 40.9921 55.7276 40.9374 55.919 40.828C56.1143 40.7187 56.2745 40.5683 56.3995 40.3769C56.5245 40.1854 56.6163 39.9629 56.6749 39.709C56.7374 39.455 56.7686 39.1854 56.7686 38.9003V38.7655C56.7686 38.4843 56.7374 38.2188 56.6749 37.9688C56.6163 37.7147 56.5225 37.4901 56.3936 37.2948C56.2686 37.0995 56.1085 36.9472 55.9132 36.8378C55.7218 36.7245 55.4932 36.6679 55.2276 36.6679C54.962 36.6679 54.7315 36.7245 54.5362 36.8378C54.3448 36.9472 54.1866 37.0995 54.0616 37.2948C53.9366 37.4901 53.8448 37.7147 53.7862 37.9688C53.7276 38.2188 53.6983 38.4843 53.6983 38.7655ZM61.2764 36.9492V42H59.8643V35.6601H61.1944L61.2764 36.9492ZM61.0479 38.5956L60.5675 38.5898C60.5675 38.1523 60.6221 37.7479 60.7315 37.3769C60.8409 37.0058 61.001 36.6835 61.212 36.4101C61.4229 36.1327 61.6846 35.9199 61.9971 35.7715C62.3135 35.6191 62.6788 35.5429 63.0928 35.5429C63.3819 35.5429 63.6456 35.5859 63.8839 35.6719C64.126 35.7539 64.335 35.8847 64.5108 36.0644C64.6905 36.244 64.8272 36.4746 64.921 36.7559C65.0186 37.0371 65.0675 37.3769 65.0675 37.7753V42H63.6553V37.8983C63.6553 37.5897 63.6085 37.3477 63.5147 37.1719C63.4249 36.9961 63.294 36.8711 63.1221 36.7969C62.9542 36.7188 62.753 36.6796 62.5186 36.6796C62.253 36.6796 62.0264 36.7305 61.8389 36.832C61.6553 36.9336 61.505 37.0723 61.3878 37.248C61.2706 37.4238 61.1846 37.6269 61.13 37.8573C61.0753 38.0878 61.0479 38.3339 61.0479 38.5956ZM64.9796 38.2206L64.3175 38.3671C64.3175 37.9843 64.3702 37.6229 64.4757 37.2831C64.585 36.9394 64.7432 36.6387 64.9503 36.3809C65.1612 36.1191 65.421 35.914 65.7296 35.7655C66.0382 35.6171 66.3917 35.5429 66.7901 35.5429C67.1143 35.5429 67.4034 35.5879 67.6573 35.6777C67.9151 35.7637 68.1339 35.9003 68.3135 36.0878C68.4932 36.2753 68.63 36.5195 68.7237 36.8203C68.8175 37.1172 68.8643 37.4765 68.8643 37.8983V42H67.4464V37.8926C67.4464 37.5723 67.3995 37.3241 67.3057 37.1483C67.2159 36.9726 67.087 36.8515 66.919 36.7851C66.751 36.7147 66.5499 36.6796 66.3155 36.6796C66.0968 36.6796 65.9034 36.7207 65.7354 36.8027C65.5714 36.8809 65.4327 36.9922 65.3194 37.1367C65.2061 37.2773 65.1202 37.4395 65.0616 37.623C65.0069 37.8066 64.9796 38.0058 64.9796 38.2206ZM73.6124 42.1171C73.1436 42.1171 72.7198 42.0409 72.3409 41.8886C71.9659 41.7323 71.6456 41.5156 71.38 41.2383C71.1182 40.9609 70.9171 40.6348 70.7764 40.2598C70.6358 39.8848 70.5655 39.4805 70.5655 39.0469V38.8125C70.5655 38.3164 70.6378 37.8672 70.7823 37.4648C70.9268 37.0625 71.128 36.7188 71.3858 36.4336C71.6436 36.1445 71.9483 35.9237 72.2999 35.7715C72.6514 35.6191 73.0323 35.5429 73.4425 35.5429C73.8956 35.5429 74.2921 35.6191 74.6319 35.7715C74.9718 35.9237 75.253 36.1387 75.4757 36.416C75.7022 36.6895 75.8702 37.0156 75.9796 37.3945C76.0928 37.7734 76.1495 38.1913 76.1495 38.6483V39.2519H71.251V38.2383H74.755V38.1269C74.7471 37.8729 74.6964 37.6348 74.6026 37.4121C74.5128 37.1895 74.3741 37.0098 74.1866 36.873C73.9991 36.7363 73.7491 36.6679 73.4366 36.6679C73.2022 36.6679 72.9932 36.7188 72.8096 36.8203C72.63 36.918 72.4796 37.0605 72.3585 37.248C72.2374 37.4355 72.1436 37.6621 72.0772 37.9277C72.0147 38.1895 71.9835 38.4844 71.9835 38.8125V39.0469C71.9835 39.3242 72.0206 39.582 72.0948 39.8203C72.1729 40.0547 72.2862 40.2598 72.4346 40.4355C72.5831 40.6113 72.7628 40.75 72.9737 40.8516C73.1846 40.9492 73.4249 40.998 73.6944 40.998C74.0343 40.998 74.337 40.9296 74.6026 40.7929C74.8682 40.6561 75.0987 40.4628 75.294 40.2128L76.0382 40.9336C75.9014 41.1328 75.7237 41.3242 75.505 41.5078C75.2862 41.6875 75.0186 41.834 74.7022 41.9473C74.3897 42.0605 74.0264 42.1171 73.6124 42.1171Z" fill="white"/>
<path id="Vector_2" d="M56 24.3333V12.6667H64V24.3333M48 9.16667L60 1L72 9.16667V22C72 22.6188 71.719 23.2123 71.219 23.6499C70.7189 24.0875 70.0406 24.3333 69.3333 24.3333H50.6667C49.9594 24.3333 49.2811 24.0875 48.781 23.6499C48.281 23.2123 48 22.6188 48 22V9.16667Z" stroke="white" stroke-width="2" stroke-linecap="round" stroke-linejoin="round"/>
</g>
</svg>
