<svg width="73" height="30" viewBox="0 0 73 30" fill="none" xmlns="http://www.w3.org/2000/svg">
<rect width="73" height="30" rx="15" fill="#F58282"/>
<path d="M16.805 9.54545V19H15.0784L10.9651 13.0494H10.8959V19H8.89693V9.54545H10.6512L14.7322 15.4915H14.8153V9.54545H16.805ZM21.6511 19.1385C20.9217 19.1385 20.2939 18.9908 19.7676 18.6953C19.2444 18.3968 18.8412 17.9751 18.5581 17.4304C18.2749 16.8826 18.1333 16.2347 18.1333 15.4869C18.1333 14.7575 18.2749 14.1173 18.5581 13.5664C18.8412 13.0155 19.2398 12.5862 19.7537 12.2784C20.2708 11.9706 20.8771 11.8168 21.5726 11.8168C22.0404 11.8168 22.4759 11.8922 22.8791 12.043C23.2853 12.1907 23.6393 12.4138 23.9409 12.7124C24.2456 13.0109 24.4825 13.3864 24.6518 13.8388C24.8211 14.2881 24.9057 14.8144 24.9057 15.4176V15.9577H18.9181V14.739H23.0545C23.0545 14.4558 22.993 14.205 22.8699 13.9865C22.7467 13.768 22.5759 13.5972 22.3574 13.4741C22.142 13.3479 21.8912 13.2848 21.6049 13.2848C21.3064 13.2848 21.0417 13.354 20.8109 13.4925C20.5832 13.628 20.4047 13.8111 20.2754 14.0419C20.1461 14.2696 20.08 14.5236 20.0769 14.8036V15.9624C20.0769 16.3132 20.1415 16.6164 20.2708 16.8718C20.4031 17.1272 20.5893 17.3242 20.8294 17.4627C21.0694 17.6012 21.3541 17.6705 21.6834 17.6705C21.9019 17.6705 22.102 17.6397 22.2836 17.5781C22.4651 17.5166 22.6206 17.4242 22.7498 17.3011C22.8791 17.178 22.9776 17.0272 23.0453 16.8487L24.8642 16.9688C24.7718 17.4058 24.5826 17.7874 24.2963 18.1136C24.0132 18.4368 23.647 18.6892 23.1976 18.8707C22.7514 19.0492 22.2359 19.1385 21.6511 19.1385ZM29.3837 21.8068C28.7466 21.8068 28.2003 21.7191 27.7449 21.5437C27.2924 21.3713 26.9324 21.1359 26.6646 20.8374C26.3968 20.5388 26.223 20.2034 26.1429 19.831L27.9618 19.5863C28.0172 19.7279 28.1049 19.8602 28.225 19.9833C28.345 20.1064 28.5035 20.2049 28.7005 20.2788C28.9005 20.3557 29.1436 20.3942 29.4299 20.3942C29.8577 20.3942 30.21 20.2895 30.487 20.0803C30.7671 19.8741 30.9071 19.5278 30.9071 19.0415V17.7443H30.824C30.7379 17.9413 30.6086 18.1275 30.4363 18.3029C30.2639 18.4783 30.0423 18.6214 29.7715 18.7322C29.5007 18.843 29.1775 18.8984 28.802 18.8984C28.2696 18.8984 27.7849 18.7753 27.3478 18.5291C26.9139 18.2798 26.5676 17.8997 26.3091 17.3888C26.0537 16.8749 25.926 16.2255 25.926 15.4407C25.926 14.6374 26.0568 13.9665 26.3184 13.4279C26.58 12.8893 26.9277 12.4862 27.3617 12.2184C27.7987 11.9506 28.2773 11.8168 28.7974 11.8168C29.1944 11.8168 29.5268 11.8845 29.7946 12.0199C30.0623 12.1522 30.2778 12.3184 30.4409 12.5185C30.6071 12.7154 30.7348 12.9093 30.824 13.1001H30.8979V11.9091H32.8507V19.0692C32.8507 19.6725 32.7029 20.1772 32.4075 20.5835C32.112 20.9897 31.7027 21.2944 31.1795 21.4975C30.6594 21.7037 30.0608 21.8068 29.3837 21.8068ZM29.4252 17.4212C29.7422 17.4212 30.01 17.3427 30.2285 17.1857C30.4501 17.0257 30.6194 16.7979 30.7363 16.5025C30.8564 16.204 30.9164 15.8469 30.9164 15.4315C30.9164 15.016 30.8579 14.6559 30.7409 14.3512C30.624 14.0434 30.4547 13.8049 30.2331 13.6357C30.0115 13.4664 29.7422 13.3817 29.4252 13.3817C29.1021 13.3817 28.8297 13.4695 28.6081 13.6449C28.3865 13.8172 28.2188 14.0573 28.1049 14.3651C27.9911 14.6728 27.9341 15.0283 27.9341 15.4315C27.9341 15.8408 27.9911 16.1947 28.1049 16.4933C28.2219 16.7887 28.3896 17.018 28.6081 17.1811C28.8297 17.3411 29.1021 17.4212 29.4252 17.4212ZM36.4377 19.1339C35.9853 19.1339 35.5821 19.0554 35.2282 18.8984C34.8742 18.7384 34.5942 18.503 34.388 18.1921C34.1848 17.8782 34.0833 17.4873 34.0833 17.0195C34.0833 16.6256 34.1556 16.2947 34.3002 16.027C34.4449 15.7592 34.6419 15.5438 34.8912 15.3807C35.1404 15.2176 35.4236 15.0945 35.7406 15.0114C36.0607 14.9283 36.3961 14.8698 36.747 14.8359C37.1594 14.7929 37.4918 14.7528 37.7441 14.7159C37.9965 14.6759 38.1796 14.6174 38.2935 14.5405C38.4074 14.4635 38.4643 14.3497 38.4643 14.1989V14.1712C38.4643 13.8788 38.372 13.6526 38.1873 13.4925C38.0057 13.3325 37.7472 13.2525 37.4118 13.2525C37.0578 13.2525 36.7762 13.331 36.5669 13.4879C36.3577 13.6418 36.2192 13.8357 36.1515 14.0696L34.3326 13.9219C34.4249 13.491 34.6065 13.1186 34.8773 12.8047C35.1481 12.4877 35.4975 12.2446 35.9252 12.0753C36.3561 11.9029 36.8547 11.8168 37.421 11.8168C37.8149 11.8168 38.1919 11.8629 38.552 11.9553C38.9152 12.0476 39.2368 12.1907 39.5169 12.3846C39.8 12.5785 40.0231 12.8278 40.1863 13.1325C40.3494 13.4341 40.4309 13.7957 40.4309 14.2173V19H38.5659V18.0167H38.5105C38.3966 18.2383 38.2443 18.4337 38.0534 18.603C37.8626 18.7692 37.6333 18.9 37.3656 18.9954C37.0978 19.0877 36.7885 19.1339 36.4377 19.1339ZM37.0009 17.7766C37.2902 17.7766 37.5456 17.7197 37.7672 17.6058C37.9888 17.4889 38.1627 17.3319 38.2889 17.1349C38.4151 16.938 38.4782 16.7148 38.4782 16.4656V15.7131C38.4166 15.7531 38.332 15.79 38.2243 15.8239C38.1196 15.8546 38.0011 15.8839 37.8688 15.9116C37.7364 15.9362 37.6041 15.9593 37.4718 15.9808C37.3394 15.9993 37.2194 16.0162 37.1117 16.0316C36.8809 16.0655 36.6793 16.1193 36.5069 16.1932C36.3346 16.267 36.2007 16.3671 36.1053 16.4933C36.0099 16.6164 35.9622 16.7702 35.9622 16.9549C35.9622 17.2227 36.0591 17.4273 36.253 17.5689C36.45 17.7074 36.6993 17.7766 37.0009 17.7766ZM45.7283 11.9091V13.3864H41.4581V11.9091H45.7283ZM42.4276 10.2102H44.3942V16.821C44.3942 17.0026 44.4219 17.1442 44.4773 17.2457C44.5327 17.3442 44.6096 17.4135 44.7081 17.4535C44.8097 17.4935 44.9266 17.5135 45.0589 17.5135C45.1513 17.5135 45.2436 17.5058 45.3359 17.4904C45.4283 17.4719 45.4991 17.4581 45.5483 17.4489L45.8576 18.9123C45.7591 18.9431 45.6206 18.9785 45.4421 19.0185C45.2636 19.0616 45.0466 19.0877 44.7912 19.0969C44.3172 19.1154 43.9018 19.0523 43.5447 18.9077C43.1908 18.763 42.9154 18.5384 42.7184 18.2337C42.5214 17.929 42.4245 17.5443 42.4276 17.0795V10.2102ZM47.0094 19V11.9091H48.976V19H47.0094ZM47.9973 10.995C47.705 10.995 47.4541 10.8981 47.2449 10.7042C47.0386 10.5072 46.9355 10.2718 46.9355 9.99787C46.9355 9.72704 47.0386 9.49467 47.2449 9.30078C47.4541 9.10381 47.705 9.00533 47.9973 9.00533C48.2897 9.00533 48.539 9.10381 48.7452 9.30078C48.9545 9.49467 49.0591 9.72704 49.0591 9.99787C49.0591 10.2718 48.9545 10.5072 48.7452 10.7042C48.539 10.8981 48.2897 10.995 47.9973 10.995ZM57.1622 11.9091L54.6831 19H52.4672L49.9882 11.9091H52.0656L53.5383 16.9826H53.6121L55.0802 11.9091H57.1622ZM61.1716 19.1385C60.4422 19.1385 59.8144 18.9908 59.2881 18.6953C58.7649 18.3968 58.3617 17.9751 58.0786 17.4304C57.7954 16.8826 57.6539 16.2347 57.6539 15.4869C57.6539 14.7575 57.7954 14.1173 58.0786 13.5664C58.3617 13.0155 58.7603 12.5862 59.2742 12.2784C59.7913 11.9706 60.3976 11.8168 61.0931 11.8168C61.5609 11.8168 61.9964 11.8922 62.3996 12.043C62.8058 12.1907 63.1598 12.4138 63.4614 12.7124C63.7661 13.0109 64.003 13.3864 64.1723 13.8388C64.3416 14.2881 64.4262 14.8144 64.4262 15.4176V15.9577H58.4387V14.739H62.575C62.575 14.4558 62.5135 14.205 62.3904 13.9865C62.2673 13.768 62.0964 13.5972 61.8779 13.4741C61.6625 13.3479 61.4117 13.2848 61.1254 13.2848C60.8269 13.2848 60.5622 13.354 60.3314 13.4925C60.1037 13.628 59.9252 13.8111 59.7959 14.0419C59.6666 14.2696 59.6005 14.5236 59.5974 14.8036V15.9624C59.5974 16.3132 59.662 16.6164 59.7913 16.8718C59.9236 17.1272 60.1098 17.3242 60.3499 17.4627C60.5899 17.6012 60.8746 17.6705 61.2039 17.6705C61.4224 17.6705 61.6225 17.6397 61.8041 17.5781C61.9856 17.5166 62.1411 17.4242 62.2703 17.3011C62.3996 17.178 62.4981 17.0272 62.5658 16.8487L64.3847 16.9688C64.2923 17.4058 64.1031 17.7874 63.8169 18.1136C63.5337 18.4368 63.1675 18.6892 62.7181 18.8707C62.2719 19.0492 61.7564 19.1385 61.1716 19.1385Z" fill="black"/>
</svg>
