<svg xmlns="http://www.w3.org/2000/svg" width="27" height="26" viewBox="0 0 27 26" fill="none">
  <path d="M0 2.07996V23.92H27V2.07996H0ZM1.08 3.11996H25.92V22.88H1.08V3.11996ZM2.16 4.15996V16.0062C2.14523 16.0753 2.14523 16.1484 2.16 16.2175V21.84H24.84V19.3212C24.8548 19.2521 24.8548 19.179 24.84 19.11V4.15996H2.16ZM3.24 5.19996H23.76V17.9725L18.7481 13.1462C18.6279 13.0325 18.4591 12.9776 18.2925 13C18.1723 13.0121 18.0584 13.065 17.9719 13.1462L15.6769 15.3562L10.125 9.52246C10.0005 9.39246 9.81703 9.32949 9.63563 9.35996C9.52805 9.37417 9.42891 9.42089 9.34875 9.48996L3.24 14.9175V5.19996ZM18.9 7.79996C18.0056 7.79996 17.28 8.49871 17.28 9.35996C17.28 10.2212 18.0056 10.92 18.9 10.92C19.7944 10.92 20.52 10.2212 20.52 9.35996C20.52 8.49871 19.7944 7.79996 18.9 7.79996ZM9.68625 10.6275L14.9006 16.1037L13.6519 17.3062C13.4367 17.5134 13.4367 17.8465 13.6519 18.0537C13.867 18.2609 14.213 18.2609 14.4281 18.0537L15.9638 16.5587C16.0397 16.514 16.103 16.4531 16.1494 16.38L18.36 14.2675L23.76 19.4675V20.8H3.24V16.3637L9.68625 10.6275Z" fill="black"/>
</svg>