<svg width="73" height="30" viewBox="0 0 73 30" fill="none" xmlns="http://www.w3.org/2000/svg">
<rect width="73" height="30" rx="15" fill="#4FE084"/>
<path d="M12.3867 19V9.54545H16.1168C16.8339 9.54545 17.4448 9.68241 17.9495 9.95632C18.4543 10.2272 18.839 10.6042 19.1036 11.0874C19.3714 11.5675 19.5053 12.1214 19.5053 12.7493C19.5053 13.3771 19.3699 13.9311 19.099 14.4112C18.8282 14.8913 18.4358 15.2653 17.9218 15.533C17.4109 15.8008 16.7923 15.9347 16.066 15.9347H13.6885V14.3327H15.7429C16.1276 14.3327 16.4446 14.2666 16.6938 14.1342C16.9462 13.9988 17.134 13.8126 17.2571 13.5756C17.3832 13.3356 17.4463 13.0601 17.4463 12.7493C17.4463 12.4354 17.3832 12.1615 17.2571 11.9276C17.134 11.6906 16.9462 11.5075 16.6938 11.3782C16.4415 11.2459 16.1214 11.1797 15.7336 11.1797H14.3856V19H12.3867ZM23.8563 19.1385C23.1392 19.1385 22.5191 18.9862 21.9959 18.6815C21.4757 18.3737 21.0741 17.9459 20.791 17.3981C20.5078 16.8472 20.3663 16.2086 20.3663 15.4822C20.3663 14.7498 20.5078 14.1096 20.791 13.5618C21.0741 13.0109 21.4757 12.5831 21.9959 12.2784C22.5191 11.9706 23.1392 11.8168 23.8563 11.8168C24.5734 11.8168 25.192 11.9706 25.7121 12.2784C26.2353 12.5831 26.6385 13.0109 26.9217 13.5618C27.2048 14.1096 27.3464 14.7498 27.3464 15.4822C27.3464 16.2086 27.2048 16.8472 26.9217 17.3981C26.6385 17.9459 26.2353 18.3737 25.7121 18.6815C25.192 18.9862 24.5734 19.1385 23.8563 19.1385ZM23.8655 17.6151C24.1918 17.6151 24.4641 17.5227 24.6827 17.3381C24.9012 17.1503 25.0658 16.8949 25.1766 16.5717C25.2905 16.2486 25.3474 15.8808 25.3474 15.4684C25.3474 15.056 25.2905 14.6882 25.1766 14.3651C25.0658 14.0419 24.9012 13.7865 24.6827 13.5987C24.4641 13.411 24.1918 13.3171 23.8655 13.3171C23.5362 13.3171 23.2592 13.411 23.0346 13.5987C22.813 13.7865 22.6453 14.0419 22.5314 14.3651C22.4206 14.6882 22.3652 15.056 22.3652 15.4684C22.3652 15.8808 22.4206 16.2486 22.5314 16.5717C22.6453 16.8949 22.813 17.1503 23.0346 17.3381C23.2592 17.5227 23.5362 17.6151 23.8655 17.6151ZM34.525 13.9311L32.7246 14.0419C32.6938 13.888 32.6276 13.7495 32.5261 13.6264C32.4245 13.5002 32.2906 13.4002 32.1244 13.3263C31.9613 13.2494 31.7659 13.2109 31.5381 13.2109C31.2334 13.2109 30.9765 13.2756 30.7672 13.4048C30.5579 13.531 30.4533 13.7003 30.4533 13.9126C30.4533 14.0819 30.521 14.225 30.6564 14.342C30.7918 14.4589 31.0242 14.5528 31.3535 14.6236L32.6369 14.8821C33.3262 15.0237 33.8402 15.2514 34.1788 15.5653C34.5173 15.8793 34.6866 16.2917 34.6866 16.8026C34.6866 17.2673 34.5496 17.6751 34.2757 18.0259C34.0049 18.3768 33.6325 18.6507 33.1585 18.8477C32.6876 19.0415 32.1444 19.1385 31.5289 19.1385C30.5902 19.1385 29.8423 18.9431 29.2853 18.5522C28.7313 18.1583 28.4066 17.6228 28.3112 16.9457L30.2455 16.8441C30.304 17.1303 30.4456 17.3488 30.6702 17.4996C30.8949 17.6474 31.1827 17.7212 31.5335 17.7212C31.8782 17.7212 32.1552 17.6551 32.3645 17.5227C32.5768 17.3873 32.6846 17.2134 32.6876 17.0011C32.6846 16.8226 32.6092 16.6764 32.4614 16.5625C32.3137 16.4455 32.086 16.3563 31.7782 16.2947L30.5502 16.0501C29.8577 15.9116 29.3422 15.6715 29.0037 15.3299C28.6682 14.9883 28.5005 14.5528 28.5005 14.0234C28.5005 13.5679 28.6236 13.1755 28.8698 12.8462C29.1191 12.5169 29.4684 12.263 29.9177 12.0845C30.3702 11.906 30.8995 11.8168 31.5058 11.8168C32.4014 11.8168 33.1062 12.006 33.6202 12.3846C34.1372 12.7631 34.4388 13.2786 34.525 13.9311ZM35.9249 19V11.9091H37.8916V19H35.9249ZM36.9129 10.995C36.6205 10.995 36.3697 10.8981 36.1604 10.7042C35.9542 10.5072 35.8511 10.2718 35.8511 9.99787C35.8511 9.72704 35.9542 9.49467 36.1604 9.30078C36.3697 9.10381 36.6205 9.00533 36.9129 9.00533C37.2052 9.00533 37.4545 9.10381 37.6607 9.30078C37.87 9.49467 37.9747 9.72704 37.9747 9.99787C37.9747 10.2718 37.87 10.5072 37.6607 10.7042C37.4545 10.8981 37.2052 10.995 36.9129 10.995ZM43.2386 11.9091V13.3864H38.9684V11.9091H43.2386ZM39.9378 10.2102H41.9044V16.821C41.9044 17.0026 41.9321 17.1442 41.9875 17.2457C42.0429 17.3442 42.1199 17.4135 42.2184 17.4535C42.3199 17.4935 42.4369 17.5135 42.5692 17.5135C42.6615 17.5135 42.7539 17.5058 42.8462 17.4904C42.9385 17.4719 43.0093 17.4581 43.0585 17.4489L43.3679 18.9123C43.2694 18.9431 43.1309 18.9785 42.9524 19.0185C42.7739 19.0616 42.5569 19.0877 42.3014 19.0969C41.8275 19.1154 41.412 19.0523 41.055 18.9077C40.7011 18.763 40.4256 18.5384 40.2286 18.2337C40.0317 17.929 39.9347 17.5443 39.9378 17.0795V10.2102ZM44.5197 19V11.9091H46.4863V19H44.5197ZM45.5076 10.995C45.2152 10.995 44.9644 10.8981 44.7551 10.7042C44.5489 10.5072 44.4458 10.2718 44.4458 9.99787C44.4458 9.72704 44.5489 9.49467 44.7551 9.30078C44.9644 9.10381 45.2152 9.00533 45.5076 9.00533C45.8 9.00533 46.0493 9.10381 46.2555 9.30078C46.4647 9.49467 46.5694 9.72704 46.5694 9.99787C46.5694 10.2718 46.4647 10.5072 46.2555 10.7042C46.0493 10.8981 45.8 10.995 45.5076 10.995ZM54.6725 11.9091L52.1934 19H49.9775L47.4984 11.9091H49.5759L51.0485 16.9826H51.1224L52.5904 11.9091H54.6725ZM58.6819 19.1385C57.9525 19.1385 57.3246 18.9908 56.7983 18.6953C56.2751 18.3968 55.872 17.9751 55.5888 17.4304C55.3057 16.8826 55.1641 16.2347 55.1641 15.4869C55.1641 14.7575 55.3057 14.1173 55.5888 13.5664C55.872 13.0155 56.2705 12.5862 56.7845 12.2784C57.3015 11.9706 57.9078 11.8168 58.6034 11.8168C59.0712 11.8168 59.5067 11.8922 59.9098 12.043C60.3161 12.1907 60.67 12.4138 60.9716 12.7124C61.2763 13.0109 61.5133 13.3864 61.6826 13.8388C61.8518 14.2881 61.9365 14.8144 61.9365 15.4176V15.9577H55.9489V14.739H60.0853C60.0853 14.4558 60.0237 14.205 59.9006 13.9865C59.7775 13.768 59.6067 13.5972 59.3882 13.4741C59.1727 13.3479 58.9219 13.2848 58.6357 13.2848C58.3372 13.2848 58.0725 13.354 57.8417 13.4925C57.6139 13.628 57.4354 13.8111 57.3062 14.0419C57.1769 14.2696 57.1107 14.5236 57.1076 14.8036V15.9624C57.1076 16.3132 57.1723 16.6164 57.3015 16.8718C57.4339 17.1272 57.6201 17.3242 57.8601 17.4627C58.1002 17.6012 58.3849 17.6705 58.7142 17.6705C58.9327 17.6705 59.1327 17.6397 59.3143 17.5781C59.4959 17.5166 59.6513 17.4242 59.7806 17.3011C59.9098 17.178 60.0083 17.0272 60.076 16.8487L61.8949 16.9688C61.8026 17.4058 61.6133 17.7874 61.3271 18.1136C61.044 18.4368 60.6777 18.6892 60.2284 18.8707C59.7821 19.0492 59.2666 19.1385 58.6819 19.1385Z" fill="black"/>
</svg>
