<svg xmlns="http://www.w3.org/2000/svg" width="24" height="22" viewBox="0 0 24 22" fill="none">
  <path d="M11.6667 11C10.0625 11 8.68924 10.4615 7.54688 9.38438C6.40451 8.30729 5.83333 7.0125 5.83333 5.5C5.83333 3.9875 6.40451 2.69271 7.54688 1.61563C8.68924 0.538542 10.0625 0 11.6667 0C13.2708 0 14.6441 0.538542 15.7865 1.61563C16.9288 2.69271 17.5 3.9875 17.5 5.5C17.5 7.0125 16.9288 8.30729 15.7865 9.38438C14.6441 10.4615 13.2708 11 11.6667 11ZM0 22V18.15C0 17.3708 0.212674 16.6547 0.638021 16.0016C1.06337 15.3484 1.62847 14.85 2.33333 14.5063C3.84028 13.7958 5.37153 13.263 6.92708 12.9078C8.48264 12.5526 10.0625 12.375 11.6667 12.375C13.2708 12.375 14.8507 12.5526 16.4062 12.9078C17.9618 13.263 19.4931 13.7958 21 14.5063C21.7049 14.85 22.27 15.3484 22.6953 16.0016C23.1207 16.6547 23.3333 17.3708 23.3333 18.15V22H0ZM2.91667 19.25H20.4167V18.15C20.4167 17.8979 20.3498 17.6687 20.2161 17.4625C20.0825 17.2563 19.9062 17.0958 19.6875 16.9813C18.375 16.3625 17.0503 15.8984 15.7135 15.5891C14.3767 15.2797 13.0278 15.125 11.6667 15.125C10.3056 15.125 8.9566 15.2797 7.61979 15.5891C6.28299 15.8984 4.95833 16.3625 3.64583 16.9813C3.42708 17.0958 3.25087 17.2563 3.11719 17.4625C2.98351 17.6687 2.91667 17.8979 2.91667 18.15V19.25ZM11.6667 8.25C12.4687 8.25 13.1554 7.98073 13.7266 7.44219C14.2977 6.90365 14.5833 6.25625 14.5833 5.5C14.5833 4.74375 14.2977 4.09635 13.7266 3.55781C13.1554 3.01927 12.4687 2.75 11.6667 2.75C10.8646 2.75 10.178 3.01927 9.60677 3.55781C9.03559 4.09635 8.75 4.74375 8.75 5.5C8.75 6.25625 9.03559 6.90365 9.60677 7.44219C10.178 7.98073 10.8646 8.25 11.6667 8.25Z" fill="white"/>
</svg>