<svg width="117" height="42" viewBox="0 0 117 42" fill="none" xmlns="http://www.w3.org/2000/svg">
<g id="Frame">
<path id="Vector" d="M59.6667 11C58.0625 11 56.6892 10.4615 55.5469 9.38438C54.4045 8.30729 53.8333 7.0125 53.8333 5.5C53.8333 3.9875 54.4045 2.69271 55.5469 1.61563C56.6892 0.538542 58.0625 0 59.6667 0C61.2708 0 62.6441 0.538542 63.7865 1.61563C64.9288 2.69271 65.5 3.9875 65.5 5.5C65.5 7.0125 64.9288 8.30729 63.7865 9.38438C62.6441 10.4615 61.2708 11 59.6667 11ZM48 22V18.15C48 17.3708 48.2127 16.6547 48.638 16.0016C49.0634 15.3484 49.6285 14.85 50.3333 14.5063C51.8403 13.7958 53.3715 13.263 54.9271 12.9078C56.4826 12.5526 58.0625 12.375 59.6667 12.375C61.2708 12.375 62.8507 12.5526 64.4062 12.9078C65.9618 13.263 67.4931 13.7958 69 14.5063C69.7049 14.85 70.27 15.3484 70.6953 16.0016C71.1207 16.6547 71.3333 17.3708 71.3333 18.15V22H48ZM50.9167 19.25H68.4167V18.15C68.4167 17.8979 68.3498 17.6687 68.2161 17.4625C68.0825 17.2562 67.9062 17.0958 67.6875 16.9813C66.375 16.3625 65.0503 15.8984 63.7135 15.5891C62.3767 15.2797 61.0278 15.125 59.6667 15.125C58.3056 15.125 56.9566 15.2797 55.6198 15.5891C54.283 15.8984 52.9583 16.3625 51.6458 16.9813C51.4271 17.0958 51.2509 17.2562 51.1172 17.4625C50.9835 17.6687 50.9167 17.8979 50.9167 18.15V19.25ZM59.6667 8.25C60.4687 8.25 61.1554 7.98073 61.7266 7.44219C62.2977 6.90365 62.5833 6.25625 62.5833 5.5C62.5833 4.74375 62.2977 4.09635 61.7266 3.55781C61.1554 3.01927 60.4687 2.75 59.6667 2.75C58.8646 2.75 58.178 3.01927 57.6068 3.55781C57.0356 4.09635 56.75 4.74375 56.75 5.5C56.75 6.25625 57.0356 6.90365 57.6068 7.44219C58.178 7.98073 58.8646 8.25 59.6667 8.25Z" fill="white"/>
<path id="Vector_2" d="M44.9874 34.8184H42.7667V33.6523H44.9874C45.3741 33.6523 45.6866 33.5898 45.9249 33.4648C46.1632 33.3398 46.337 33.168 46.4464 32.9492C46.5596 32.7266 46.6163 32.4727 46.6163 32.1875C46.6163 31.918 46.5596 31.666 46.4464 31.4316C46.337 31.1934 46.1632 31.002 45.9249 30.8574C45.6866 30.7129 45.3741 30.6406 44.9874 30.6406H43.2178V38H41.7471V29.4688H44.9874C45.6475 29.4688 46.2081 29.5859 46.669 29.8203C47.1339 30.0508 47.4874 30.3711 47.7296 30.7812C47.9718 31.1875 48.0928 31.6523 48.0928 32.1758C48.0928 32.7266 47.9718 33.1992 47.7296 33.5938C47.4874 33.9883 47.1339 34.291 46.669 34.502C46.2081 34.7129 45.6475 34.8184 44.9874 34.8184ZM51.1885 32.8672V38H49.7764V31.6602H51.1241L51.1885 32.8672ZM53.128 31.6191L53.1163 32.9316C53.0303 32.916 52.9366 32.9043 52.835 32.8965C52.7374 32.8887 52.6397 32.8848 52.5421 32.8848C52.2999 32.8848 52.087 32.9199 51.9034 32.9902C51.7198 33.0566 51.5655 33.1543 51.4405 33.2832C51.3194 33.4082 51.2257 33.5605 51.1593 33.7402C51.0928 33.9199 51.0538 34.1211 51.0421 34.3438L50.7198 34.3672C50.7198 33.9688 50.7589 33.5996 50.837 33.2598C50.9151 32.9199 51.0323 32.6211 51.1885 32.3633C51.3487 32.1055 51.5479 31.9043 51.7862 31.7598C52.0284 31.6152 52.3077 31.543 52.6241 31.543C52.71 31.543 52.8018 31.5508 52.8995 31.5664C53.001 31.582 53.0772 31.5996 53.128 31.6191ZM54.0909 34.9004V34.7656C54.0909 34.3086 54.1573 33.8848 54.2901 33.4941C54.4229 33.0996 54.6143 32.7578 54.8643 32.4688C55.1182 32.1758 55.4268 31.9492 55.7901 31.7891C56.1573 31.625 56.5714 31.543 57.0323 31.543C57.4971 31.543 57.9112 31.625 58.2745 31.7891C58.6417 31.9492 58.9522 32.1758 59.2061 32.4688C59.46 32.7578 59.6534 33.0996 59.7862 33.4941C59.919 33.8848 59.9854 34.3086 59.9854 34.7656V34.9004C59.9854 35.3574 59.919 35.7812 59.7862 36.1719C59.6534 36.5625 59.46 36.9043 59.2061 37.1973C58.9522 37.4863 58.6436 37.7129 58.2803 37.877C57.9171 38.0371 57.505 38.1172 57.044 38.1172C56.5792 38.1172 56.1632 38.0371 55.796 37.877C55.4327 37.7129 55.1241 37.4863 54.8702 37.1973C54.6163 36.9043 54.4229 36.5625 54.2901 36.1719C54.1573 35.7812 54.0909 35.3574 54.0909 34.9004ZM55.503 34.7656V34.9004C55.503 35.1855 55.5323 35.4551 55.5909 35.709C55.6495 35.9629 55.7413 36.1855 55.8663 36.377C55.9913 36.5684 56.1514 36.7188 56.3468 36.8281C56.5421 36.9375 56.7745 36.9922 57.044 36.9922C57.3057 36.9922 57.5323 36.9375 57.7237 36.8281C57.919 36.7188 58.0792 36.5684 58.2042 36.377C58.3292 36.1855 58.421 35.9629 58.4796 35.709C58.5421 35.4551 58.5733 35.1855 58.5733 34.9004V34.7656C58.5733 34.4844 58.5421 34.2188 58.4796 33.9688C58.421 33.7148 58.3272 33.4902 58.1983 33.2949C58.0733 33.0996 57.9132 32.9473 57.7178 32.8379C57.5264 32.7246 57.2979 32.668 57.0323 32.668C56.7667 32.668 56.5362 32.7246 56.3409 32.8379C56.1495 32.9473 55.9913 33.0996 55.8663 33.2949C55.7413 33.4902 55.6495 33.7148 55.5909 33.9688C55.5323 34.2188 55.503 34.4844 55.503 34.7656ZM63.4854 38H62.0675V31.25C62.0675 30.7383 62.169 30.3066 62.3721 29.9551C62.5792 29.6035 62.8741 29.3359 63.2569 29.1523C63.6436 28.9688 64.1026 28.877 64.6339 28.877C64.9464 28.877 65.2471 28.9102 65.5362 28.9766C65.8292 29.043 66.1319 29.127 66.4444 29.2285L66.2276 30.377C66.0284 30.3105 65.8077 30.248 65.5655 30.1895C65.3233 30.127 65.044 30.0957 64.7276 30.0957C64.3018 30.0957 63.9874 30.1934 63.7843 30.3887C63.585 30.5801 63.4854 30.8672 63.4854 31.25V38ZM64.7569 31.6602V32.6914H61.0948V31.6602H64.7569ZM67.1124 31.6602V38H65.7003V31.6602H67.1124ZM70.7003 29V38H69.2823V29H70.7003ZM75.5421 38.1172C75.0733 38.1172 74.6495 38.041 74.2706 37.8887C73.8956 37.7324 73.5753 37.5156 73.3096 37.2383C73.0479 36.9609 72.8468 36.6348 72.7061 36.2598C72.5655 35.8848 72.4952 35.4805 72.4952 35.0469V34.8125C72.4952 34.3164 72.5675 33.8672 72.712 33.4648C72.8565 33.0625 73.0577 32.7188 73.3155 32.4336C73.5733 32.1445 73.878 31.9238 74.2296 31.7715C74.5811 31.6191 74.962 31.543 75.3721 31.543C75.8253 31.543 76.2218 31.6191 76.5616 31.7715C76.9014 31.9238 77.1827 32.1387 77.4053 32.416C77.6319 32.6895 77.7999 33.0156 77.9093 33.3945C78.0225 33.7734 78.0792 34.1914 78.0792 34.6484V35.252H73.1807V34.2383H76.6846V34.127C76.6768 33.873 76.626 33.6348 76.5323 33.4121C76.4425 33.1895 76.3038 33.0098 76.1163 32.873C75.9288 32.7363 75.6788 32.668 75.3663 32.668C75.1319 32.668 74.9229 32.7188 74.7393 32.8203C74.5596 32.918 74.4093 33.0605 74.2882 33.248C74.1671 33.4355 74.0733 33.6621 74.0069 33.9277C73.9444 34.1895 73.9132 34.4844 73.9132 34.8125V35.0469C73.9132 35.3242 73.9503 35.582 74.0245 35.8203C74.1026 36.0547 74.2159 36.2598 74.3643 36.4355C74.5128 36.6113 74.6925 36.75 74.9034 36.8516C75.1143 36.9492 75.3546 36.998 75.6241 36.998C75.9639 36.998 76.2667 36.9297 76.5323 36.793C76.7979 36.6562 77.0284 36.4629 77.2237 36.2129L77.9678 36.9336C77.8311 37.1328 77.6534 37.3242 77.4346 37.5078C77.2159 37.6875 76.9483 37.834 76.6319 37.9473C76.3194 38.0605 75.9561 38.1172 75.5421 38.1172Z" fill="white"/>
</g>
</svg>
