<svg width="120" height="66" viewBox="0 0 120 66" fill="none" xmlns="http://www.w3.org/2000/svg">
<g id="Frame">
<g id="Group" filter="url(#filter0_d_89_148)">
<path id="Vector" d="M91 29C91 45.0163 76.8966 58 59.5 58C42.1034 58 28 45.0163 28 29C28 12.9837 42.1034 0 59.5 0C76.8966 0 91 12.9837 91 29Z" fill="white"/>
</g>
<path id="Vector_2" d="M44.9874 40.8176H42.7667V39.6516H44.9874C45.3741 39.6516 45.6866 39.5891 45.9249 39.4641C46.1632 39.3391 46.337 39.1672 46.4464 38.9485C46.5596 38.7258 46.6163 38.4719 46.6163 38.1868C46.6163 37.9172 46.5596 37.6653 46.4464 37.4309C46.337 37.1926 46.1632 37.0012 45.9249 36.8567C45.6866 36.7122 45.3741 36.6399 44.9874 36.6399H43.2178V43.9993H41.7471V35.468H44.9874C45.6475 35.468 46.2081 35.5852 46.669 35.8196C47.1339 36.05 47.4874 36.3704 47.7296 36.7805C47.9718 37.1868 48.0928 37.6516 48.0928 38.175C48.0928 38.7258 47.9718 39.1985 47.7296 39.593C47.4874 39.9875 47.1339 40.2903 46.669 40.5012C46.2081 40.7122 45.6475 40.8176 44.9874 40.8176ZM51.1885 38.8665V43.9993H49.7764V37.6594H51.1241L51.1885 38.8665ZM53.128 37.6184L53.1163 38.9309C53.0303 38.9153 52.9366 38.9036 52.835 38.8958C52.7374 38.8879 52.6397 38.884 52.5421 38.884C52.2999 38.884 52.087 38.9192 51.9034 38.9895C51.7198 39.0559 51.5655 39.1536 51.4405 39.2825C51.3194 39.4075 51.2257 39.5598 51.1593 39.7395C51.0928 39.9192 51.0538 40.1204 51.0421 40.343L50.7198 40.3665C50.7198 39.968 50.7589 39.5989 50.837 39.259C50.9151 38.9192 51.0323 38.6204 51.1885 38.3625C51.3487 38.1047 51.5479 37.9036 51.7862 37.759C52.0284 37.6145 52.3077 37.5422 52.6241 37.5422C52.71 37.5422 52.8018 37.55 52.8995 37.5657C53.001 37.5813 53.0772 37.5989 53.128 37.6184ZM54.0909 40.8997V40.7649C54.0909 40.3079 54.1573 39.884 54.2901 39.4934C54.4229 39.0989 54.6143 38.7571 54.8643 38.468C55.1182 38.175 55.4268 37.9485 55.7901 37.7883C56.1573 37.6243 56.5714 37.5422 57.0323 37.5422C57.4971 37.5422 57.9112 37.6243 58.2745 37.7883C58.6417 37.9485 58.9522 38.175 59.2061 38.468C59.46 38.7571 59.6534 39.0989 59.7862 39.4934C59.919 39.884 59.9854 40.3079 59.9854 40.7649V40.8997C59.9854 41.3567 59.919 41.7805 59.7862 42.1711C59.6534 42.5618 59.46 42.9036 59.2061 43.1965C58.9522 43.4856 58.6436 43.7122 58.2803 43.8762C57.9171 44.0364 57.505 44.1165 57.044 44.1165C56.5792 44.1165 56.1632 44.0364 55.796 43.8762C55.4327 43.7122 55.1241 43.4856 54.8702 43.1965C54.6163 42.9036 54.4229 42.5618 54.2901 42.1711C54.1573 41.7805 54.0909 41.3567 54.0909 40.8997ZM55.503 40.7649V40.8997C55.503 41.1848 55.5323 41.4543 55.5909 41.7083C55.6495 41.9622 55.7413 42.1848 55.8663 42.3762C55.9913 42.5676 56.1514 42.718 56.3468 42.8274C56.5421 42.9368 56.7745 42.9915 57.044 42.9915C57.3057 42.9915 57.5323 42.9368 57.7237 42.8274C57.919 42.718 58.0792 42.5676 58.2042 42.3762C58.3292 42.1848 58.421 41.9622 58.4796 41.7083C58.5421 41.4543 58.5733 41.1848 58.5733 40.8997V40.7649C58.5733 40.4836 58.5421 40.218 58.4796 39.968C58.421 39.7141 58.3272 39.4895 58.1983 39.2942C58.0733 39.0989 57.9132 38.9465 57.7178 38.8372C57.5264 38.7239 57.2979 38.6672 57.0323 38.6672C56.7667 38.6672 56.5362 38.7239 56.3409 38.8372C56.1495 38.9465 55.9913 39.0989 55.8663 39.2942C55.7413 39.4895 55.6495 39.7141 55.5909 39.968C55.5323 40.218 55.503 40.4836 55.503 40.7649ZM63.4854 43.9993H62.0675V37.2493C62.0675 36.7375 62.169 36.3059 62.3721 35.9543C62.5792 35.6028 62.8741 35.3352 63.2569 35.1516C63.6436 34.968 64.1026 34.8762 64.6339 34.8762C64.9464 34.8762 65.2471 34.9094 65.5362 34.9758C65.8292 35.0422 66.1319 35.1262 66.4444 35.2278L66.2276 36.3762C66.0284 36.3098 65.8077 36.2473 65.5655 36.1887C65.3233 36.1262 65.044 36.095 64.7276 36.095C64.3018 36.095 63.9874 36.1926 63.7843 36.3879C63.585 36.5793 63.4854 36.8665 63.4854 37.2493V43.9993ZM64.7569 37.6594V38.6907H61.0948V37.6594H64.7569ZM67.1124 37.6594V43.9993H65.7003V37.6594H67.1124ZM70.7003 34.9993V43.9993H69.2823V34.9993H70.7003ZM75.5421 44.1165C75.0733 44.1165 74.6495 44.0403 74.2706 43.8879C73.8956 43.7317 73.5753 43.5149 73.3096 43.2375C73.0479 42.9602 72.8468 42.634 72.7061 42.259C72.5655 41.884 72.4952 41.4797 72.4952 41.0461V40.8118C72.4952 40.3157 72.5675 39.8665 72.712 39.4641C72.8565 39.0618 73.0577 38.718 73.3155 38.4329C73.5733 38.1438 73.878 37.9231 74.2296 37.7708C74.5811 37.6184 74.962 37.5422 75.3721 37.5422C75.8253 37.5422 76.2218 37.6184 76.5616 37.7708C76.9014 37.9231 77.1827 38.1379 77.4053 38.4153C77.6319 38.6887 77.7999 39.0149 77.9093 39.3938C78.0225 39.7727 78.0792 40.1907 78.0792 40.6477V41.2512H73.1807V40.2375H76.6846V40.1262C76.6768 39.8723 76.626 39.634 76.5323 39.4114C76.4425 39.1887 76.3038 39.009 76.1163 38.8723C75.9288 38.7356 75.6788 38.6672 75.3663 38.6672C75.1319 38.6672 74.9229 38.718 74.7393 38.8196C74.5596 38.9172 74.4093 39.0598 74.2882 39.2473C74.1671 39.4348 74.0733 39.6614 74.0069 39.927C73.9444 40.1887 73.9132 40.4836 73.9132 40.8118V41.0461C73.9132 41.3235 73.9503 41.5813 74.0245 41.8196C74.1026 42.054 74.2159 42.259 74.3643 42.4348C74.5128 42.6106 74.6925 42.7493 74.9034 42.8508C75.1143 42.9485 75.3546 42.9973 75.6241 42.9973C75.9639 42.9973 76.2667 42.929 76.5323 42.7922C76.7979 42.6555 77.0284 42.4622 77.2237 42.2122L77.9678 42.9329C77.8311 43.1321 77.6534 43.3235 77.4346 43.5071C77.2159 43.6868 76.9483 43.8333 76.6319 43.9465C76.3194 44.0598 75.9561 44.1165 75.5421 44.1165Z" fill="#3254ED"/>
<path id="Vector_3" d="M59.6667 20C58.0625 20 56.6892 19.4615 55.5469 18.3844C54.4045 17.3073 53.8333 16.0125 53.8333 14.5C53.8333 12.9875 54.4045 11.6927 55.5469 10.6156C56.6892 9.53854 58.0625 9 59.6667 9C61.2708 9 62.6441 9.53854 63.7865 10.6156C64.9288 11.6927 65.5 12.9875 65.5 14.5C65.5 16.0125 64.9288 17.3073 63.7865 18.3844C62.6441 19.4615 61.2708 20 59.6667 20ZM48 31V27.15C48 26.3708 48.2127 25.6547 48.638 25.0016C49.0634 24.3484 49.6285 23.85 50.3333 23.5063C51.8403 22.7958 53.3715 22.263 54.9271 21.9078C56.4826 21.5526 58.0625 21.375 59.6667 21.375C61.2708 21.375 62.8507 21.5526 64.4062 21.9078C65.9618 22.263 67.4931 22.7958 69 23.5063C69.7049 23.85 70.27 24.3484 70.6953 25.0016C71.1207 25.6547 71.3333 26.3708 71.3333 27.15V31H48ZM50.9167 28.25H68.4167V27.15C68.4167 26.8979 68.3498 26.6687 68.2161 26.4625C68.0825 26.2563 67.9062 26.0958 67.6875 25.9813C66.375 25.3625 65.0503 24.8984 63.7135 24.5891C62.3767 24.2797 61.0278 24.125 59.6667 24.125C58.3056 24.125 56.9566 24.2797 55.6198 24.5891C54.283 24.8984 52.9583 25.3625 51.6458 25.9813C51.4271 26.0958 51.2509 26.2563 51.1172 26.4625C50.9835 26.6687 50.9167 26.8979 50.9167 27.15V28.25ZM59.6667 17.25C60.4687 17.25 61.1554 16.9807 61.7266 16.4422C62.2977 15.9036 62.5833 15.2562 62.5833 14.5C62.5833 13.7438 62.2977 13.0964 61.7266 12.5578C61.1554 12.0193 60.4687 11.75 59.6667 11.75C58.8646 11.75 58.178 12.0193 57.6068 12.5578C57.0356 13.0964 56.75 13.7438 56.75 14.5C56.75 15.2562 57.0356 15.9036 57.6068 16.4422C58.178 16.9807 58.8646 17.25 59.6667 17.25Z" fill="#3254ED"/>
</g>
<defs>
<filter id="filter0_d_89_148" x="28" y="0" width="71" height="66" filterUnits="userSpaceOnUse" color-interpolation-filters="sRGB">
<feFlood flood-opacity="0" result="BackgroundImageFix"/>
<feColorMatrix in="SourceAlpha" type="matrix" values="0 0 0 0 0 0 0 0 0 0 0 0 0 0 0 0 0 0 127 0" result="hardAlpha"/>
<feOffset dx="4" dy="4"/>
<feGaussianBlur stdDeviation="2"/>
<feComposite in2="hardAlpha" operator="out"/>
<feColorMatrix type="matrix" values="0 0 0 0 0 0 0 0 0 0 0 0 0 0 0 0 0 0 0.25 0"/>
<feBlend mode="normal" in2="BackgroundImageFix" result="effect1_dropShadow_89_148"/>
<feBlend mode="normal" in="SourceGraphic" in2="effect1_dropShadow_89_148" result="shape"/>
</filter>
</defs>
</svg>
