<svg width="73" height="30" viewBox="0 0 73 30" fill="none" xmlns="http://www.w3.org/2000/svg">
<rect width="73" height="30" rx="15" fill="#D9D9D9"/>
<path d="M23.4126 12.2646C23.3756 11.8922 23.2171 11.6029 22.9371 11.3967C22.657 11.1905 22.2769 11.0874 21.7968 11.0874C21.4706 11.0874 21.1951 11.1335 20.9704 11.2259C20.7458 11.3151 20.5734 11.4397 20.4534 11.5998C20.3364 11.7598 20.278 11.9414 20.278 12.1445C20.2718 12.3138 20.3072 12.4615 20.3841 12.5877C20.4642 12.7139 20.5734 12.8232 20.7119 12.9155C20.8504 13.0047 21.0104 13.0832 21.192 13.1509C21.3736 13.2156 21.5675 13.271 21.7737 13.3171L22.6231 13.5202C23.0355 13.6126 23.4141 13.7357 23.7588 13.8896C24.1035 14.0434 24.402 14.2327 24.6544 14.4574C24.9068 14.6821 25.1022 14.9467 25.2407 15.2514C25.3823 15.5561 25.4546 15.9054 25.4577 16.2994C25.4546 16.878 25.3068 17.3796 25.0145 17.8043C24.7252 18.226 24.3066 18.5537 23.7588 18.7876C23.214 19.0185 22.557 19.1339 21.7876 19.1339C21.0243 19.1339 20.3595 19.0169 19.7932 18.783C19.23 18.5491 18.7899 18.2029 18.4729 17.7443C18.159 17.2827 17.9943 16.7118 17.979 16.0316H19.9133C19.9348 16.3486 20.0256 16.6133 20.1856 16.8256C20.3488 17.0349 20.5657 17.1934 20.8366 17.3011C21.1105 17.4058 21.4198 17.4581 21.7645 17.4581C22.103 17.4581 22.3969 17.4089 22.6462 17.3104C22.8986 17.2119 23.094 17.0749 23.2325 16.8995C23.371 16.7241 23.4403 16.5225 23.4403 16.2947C23.4403 16.0824 23.3772 15.9039 23.251 15.7592C23.1279 15.6146 22.9463 15.4915 22.7062 15.3899C22.4693 15.2884 22.1784 15.196 21.8337 15.1129L20.8042 14.8544C20.0071 14.6605 19.3778 14.3574 18.9161 13.945C18.4545 13.5326 18.2252 12.977 18.2282 12.2784C18.2252 11.706 18.3775 11.2058 18.6853 10.7781C18.9961 10.3503 19.4224 10.0163 19.964 9.77628C20.5057 9.53622 21.1212 9.41619 21.8106 9.41619C22.5123 9.41619 23.1248 9.53622 23.648 9.77628C24.1743 10.0163 24.5836 10.3503 24.876 10.7781C25.1684 11.2058 25.3192 11.7013 25.3284 12.2646H23.4126ZM29.9691 19.1385C29.252 19.1385 28.6319 18.9862 28.1087 18.6815C27.5885 18.3737 27.1869 17.9459 26.9038 17.3981C26.6206 16.8472 26.479 16.2086 26.479 15.4822C26.479 14.7498 26.6206 14.1096 26.9038 13.5618C27.1869 13.0109 27.5885 12.5831 28.1087 12.2784C28.6319 11.9706 29.252 11.8168 29.9691 11.8168C30.6862 11.8168 31.3048 11.9706 31.8249 12.2784C32.3481 12.5831 32.7513 13.0109 33.0344 13.5618C33.3176 14.1096 33.4592 14.7498 33.4592 15.4822C33.4592 16.2086 33.3176 16.8472 33.0344 17.3981C32.7513 17.9459 32.3481 18.3737 31.8249 18.6815C31.3048 18.9862 30.6862 19.1385 29.9691 19.1385ZM29.9783 17.6151C30.3046 17.6151 30.5769 17.5227 30.7955 17.3381C31.014 17.1503 31.1786 16.8949 31.2894 16.5717C31.4033 16.2486 31.4602 15.8808 31.4602 15.4684C31.4602 15.056 31.4033 14.6882 31.2894 14.3651C31.1786 14.0419 31.014 13.7865 30.7955 13.5987C30.5769 13.411 30.3046 13.3171 29.9783 13.3171C29.649 13.3171 29.372 13.411 29.1474 13.5987C28.9258 13.7865 28.758 14.0419 28.6442 14.3651C28.5334 14.6882 28.478 15.056 28.478 15.4684C28.478 15.8808 28.5334 16.2486 28.6442 16.5717C28.758 16.8949 28.9258 17.1503 29.1474 17.3381C29.372 17.5227 29.649 17.6151 29.9783 17.6151ZM39.1559 14.3374V15.8977H34.8441V14.3374H39.1559ZM45.9975 12.2646C45.9606 11.8922 45.8021 11.6029 45.522 11.3967C45.242 11.1905 44.8619 11.0874 44.3817 11.0874C44.0555 11.0874 43.7801 11.1335 43.5554 11.2259C43.3307 11.3151 43.1584 11.4397 43.0384 11.5998C42.9214 11.7598 42.8629 11.9414 42.8629 12.1445C42.8568 12.3138 42.8922 12.4615 42.9691 12.5877C43.0491 12.7139 43.1584 12.8232 43.2969 12.9155C43.4354 13.0047 43.5954 13.0832 43.777 13.1509C43.9586 13.2156 44.1525 13.271 44.3587 13.3171L45.2081 13.5202C45.6205 13.6126 45.9991 13.7357 46.3438 13.8896C46.6884 14.0434 46.987 14.2327 47.2393 14.4574C47.4917 14.6821 47.6871 14.9467 47.8256 15.2514C47.9672 15.5561 48.0395 15.9054 48.0426 16.2994C48.0395 16.878 47.8918 17.3796 47.5994 17.8043C47.3101 18.226 46.8916 18.5537 46.3438 18.7876C45.799 19.0185 45.1419 19.1339 44.3725 19.1339C43.6093 19.1339 42.9445 19.0169 42.3782 18.783C41.815 18.5491 41.3749 18.2029 41.0579 17.7443C40.744 17.2827 40.5793 16.7118 40.5639 16.0316H42.4982C42.5198 16.3486 42.6106 16.6133 42.7706 16.8256C42.9337 17.0349 43.1507 17.1934 43.4215 17.3011C43.6954 17.4058 44.0047 17.4581 44.3494 17.4581C44.688 17.4581 44.9819 17.4089 45.2312 17.3104C45.4835 17.2119 45.679 17.0749 45.8175 16.8995C45.956 16.7241 46.0252 16.5225 46.0252 16.2947C46.0252 16.0824 45.9621 15.9039 45.8359 15.7592C45.7128 15.6146 45.5313 15.4915 45.2912 15.3899C45.0542 15.2884 44.7634 15.196 44.4187 15.1129L43.3892 14.8544C42.5921 14.6605 41.9627 14.3574 41.5011 13.945C41.0394 13.5326 40.8101 12.977 40.8132 12.2784C40.8101 11.706 40.9625 11.2058 41.2702 10.7781C41.5811 10.3503 42.0073 10.0163 42.549 9.77628C43.0907 9.53622 43.7062 9.41619 44.3956 9.41619C45.0973 9.41619 45.7098 9.53622 46.233 9.77628C46.7592 10.0163 47.1686 10.3503 47.4609 10.7781C47.7533 11.2058 47.9041 11.7013 47.9134 12.2646H45.9975ZM52.5541 19.1385C51.837 19.1385 51.2168 18.9862 50.6936 18.6815C50.1735 18.3737 49.7719 17.9459 49.4887 17.3981C49.2056 16.8472 49.064 16.2086 49.064 15.4822C49.064 14.7498 49.2056 14.1096 49.4887 13.5618C49.7719 13.0109 50.1735 12.5831 50.6936 12.2784C51.2168 11.9706 51.837 11.8168 52.5541 11.8168C53.2712 11.8168 53.8898 11.9706 54.4099 12.2784C54.9331 12.5831 55.3363 13.0109 55.6194 13.5618C55.9026 14.1096 56.0441 14.7498 56.0441 15.4822C56.0441 16.2086 55.9026 16.8472 55.6194 17.3981C55.3363 17.9459 54.9331 18.3737 54.4099 18.6815C53.8898 18.9862 53.2712 19.1385 52.5541 19.1385ZM52.5633 17.6151C52.8895 17.6151 53.1619 17.5227 53.3804 17.3381C53.5989 17.1503 53.7636 16.8949 53.8744 16.5717C53.9883 16.2486 54.0452 15.8808 54.0452 15.4684C54.0452 15.056 53.9883 14.6882 53.8744 14.3651C53.7636 14.0419 53.5989 13.7865 53.3804 13.5987C53.1619 13.411 52.8895 13.3171 52.5633 13.3171C52.234 13.3171 51.957 13.411 51.7323 13.5987C51.5107 13.7865 51.343 14.0419 51.2291 14.3651C51.1183 14.6882 51.0629 15.056 51.0629 15.4684C51.0629 15.8808 51.1183 16.2486 51.2291 16.5717C51.343 16.8949 51.5107 17.1503 51.7323 17.3381C51.957 17.5227 52.234 17.6151 52.5633 17.6151Z" fill="black"/>
</svg>
